<?xml version="1.0" encoding="UTF-8" standalone="no"?>
<!-- Created with Inkscape (http://www.inkscape.org/) -->

<svg
   xmlns:dc="http://purl.org/dc/elements/1.1/"
   xmlns:cc="http://creativecommons.org/ns#"
   xmlns:rdf="http://www.w3.org/1999/02/22-rdf-syntax-ns#"
   xmlns:svg="http://www.w3.org/2000/svg"
   xmlns="http://www.w3.org/2000/svg"
   xmlns:sodipodi="http://sodipodi.sourceforge.net/DTD/sodipodi-0.dtd"
   xmlns:inkscape="http://www.inkscape.org/namespaces/inkscape"
   width="110.09914mm"
   height="137.07317mm"
   viewBox="0 0 390.11506 485.69231"
   id="svg5127"
   version="1.1"
   inkscape:version="0.91 r13725"
   sodipodi:docname="cancer_trust_fonttest.svg">
  <defs
     id="defs5129" />
  <sodipodi:namedview
     id="base"
     pagecolor="#ffffff"
     bordercolor="#666666"
     borderopacity="1.0"
     inkscape:pageopacity="0.0"
     inkscape:pageshadow="2"
     inkscape:zoom="1.171309"
     inkscape:cx="74.358871"
     inkscape:cy="200.39729"
     inkscape:document-units="px"
     inkscape:current-layer="g6839"
     showgrid="false"
     fit-margin-top="0"
     fit-margin-left="0"
     fit-margin-right="0"
     fit-margin-bottom="0"
     inkscape:window-width="1373"
     inkscape:window-height="1110"
     inkscape:window-x="339"
     inkscape:window-y="49"
     inkscape:window-maximized="0"
     inkscape:snap-text-baseline="false" />
  <metadata
     id="metadata5132">
    <rdf:RDF>
      <cc:Work
         rdf:about="">
        <dc:format>image/svg+xml</dc:format>
        <dc:type
           rdf:resource="http://purl.org/dc/dcmitype/StillImage" />
        <dc:title></dc:title>
      </cc:Work>
    </rdf:RDF>
  </metadata>
  <g
     inkscape:label="Layer 1"
     inkscape:groupmode="layer"
     id="layer1"
     transform="translate(-209.59544,-239.11307)">
    <g
       id="g6839">
      <path
         transform="matrix(1.0011337,0.39972131,-0.40966312,0.97683793,232.94667,40.221503)"
         d="m 90.111328,166.7793 c -0.38714,0.11102 -0.482159,0.16916 -0.453125,0.14648 0.02903,-0.0227 -0.01155,-0.0385 -0.142578,0.33789 -0.262056,0.75281 -0.611733,2.71956 -1.222656,6.53516 -2.359435,14.73611 -3.784541,28.16008 -3.941407,36.95312 l -0.04883,2.72461 0.251954,0.22656 0,-0.002 c 0.359798,0.32269 0.700257,0.51525 2.179687,0.66406 1.47943,0.14881 3.927908,0.1631 7.904297,0.082 1.874326,-0.0382 3.682965,-0.0981 5.076172,-0.16407 0.696606,-0.033 1.289666,-0.0687 1.726566,-0.10156 0.43689,-0.0329 0.83891,-0.10566 0.6582,-0.0605 0.50523,-0.12612 0.54525,-0.14867 0.77344,-0.45703 0.22818,-0.30836 0.56571,-1.04371 0.98437,-2.3457 l 0.7832,-2.43555 a 1.4500413,1.4500413 0 0 1 2.3086,-0.67187 l 10.24023,8.52539 c 9.03008,7.51774 13.97183,11.59548 16.97657,13.85547 3.00473,2.25999 3.88285,2.62954 5.30664,3.02734 0.55195,0.15427 1.71819,0.2694 3.29101,0.22656 2.44542,-0.0666 3.15588,-0.31256 4.16406,-1.23437 0.26416,-0.24151 0.79908,-0.67092 1.47461,-0.70703 0.67554,-0.0361 1.01547,0.14959 1.52149,0.32812 2.84955,1.00538 7.09683,-0.033 8.66015,-1.85937 0.37964,-0.44352 0.71624,-0.90752 1.4336,-1.17188 0.71736,-0.26436 1.23186,-0.15016 1.87304,-0.084 0.99591,0.10279 3.12993,-0.3157 4.40235,-0.96485 0.91704,-0.46784 2.64371,-2.18053 2.90234,-2.6875 0.22181,-0.43477 0.49525,-0.91333 1.00781,-1.27148 0.51257,-0.35815 1.03236,-0.45087 1.5293,-0.52539 1.91538,-0.28723 4.12274,-1.91357 5.00977,-3.72266 0.42404,-0.86481 0.44102,-0.99773 0.47656,-2.98047 0.0122,-0.68424 0.0385,-1.32854 0.0723,-1.83593 0.0169,-0.2537 0.0336,-0.47101 0.0566,-0.66211 0.0115,-0.0956 0.0245,-0.18112 0.0449,-0.28516 0.0205,-0.10404 -0.0527,-0.14112 0.21484,-0.57422 a 1.4500413,1.4500413 0 0 1 0.002,0 c 0.21605,-0.34959 0.2806,-0.35168 0.38085,-0.44336 0.10025,-0.0917 0.20424,-0.17839 0.32032,-0.27148 0.23215,-0.18618 0.50817,-0.39097 0.80078,-0.59375 l 0.96484,-0.66992 a 1.4500413,1.4500413 0 0 1 1.53711,-0.0723 l 0.87695,0.49414 c 1.49275,0.83839 3.87027,1.16616 11.63672,1.14844 4.08249,-0.009 6.28608,-0.0613 7.26367,-0.22852 0.4888,-0.0836 0.59671,-0.17198 0.5918,-0.16797 -0.005,0.004 0.0243,-0.004 0.15235,-0.31054 -0.0119,0.0284 0.11775,-0.5714 0.0137,-1.99805 -0.10408,-1.42665 -0.37144,-3.66379 -0.83203,-7.10156 -1.0418,-7.77569 -2.48004,-14.80314 -4.00977,-20.04688 -0.76486,-2.62187 -1.55576,-4.801 -2.30273,-6.37109 -0.74698,-1.57009 -1.55822,-2.49392 -1.76368,-2.61523 0.14593,0.0862 -0.25433,-0.0927 -0.7832,-0.19727 -0.52886,-0.10455 -1.25101,-0.20753 -2.09375,-0.29297 -4.6238,-0.46877 -9.89603,0.23877 -16.20117,2.25195 l -3.49805,1.11719 a 1.4500413,1.4500413 0 0 1 -0.89258,-0.004 l -2.41601,-0.79102 c -2.29345,-0.75104 -6.73728,-2.51237 -14.11133,-5.57617 -5.58363,-2.31992 -11.12314,-2.25591 -16.88476,0.21875 l -1.99219,0.85547 a 1.4500413,1.4500413 0 0 1 -0.66211,0.11523 l -4.18946,-0.26172 c -2.2579,-0.14078 -6.92039,-0.32262 -10.28124,-0.39844 -5.96619,-0.13452 -6.55341,-0.20108 -9.66211,-0.97656 -3.68328,-0.91881 -8.43856,-1.90207 -12.388676,-2.61133 -1.97506,-0.35463 -3.752291,-0.64152 -5.080078,-0.8164 -0.663894,-0.0874 -1.218387,-0.1473 -1.607422,-0.17383 -0.389035,-0.0265 -0.764257,0.0698 -0.384766,-0.0391 z m 2.689453,2.41601 c 0.334368,0.004 0.46094,0.0623 0.503907,0.0723 -0.0272,-0.006 0.725373,0.14302 1.646484,0.31445 0.92111,0.17143 2.123579,0.39257 3.384766,0.62109 4.183452,0.75804 8.380152,1.6394 10.833982,2.28516 0.30496,0.0803 0.74225,0.14792 1.23438,0.5918 0.49213,0.44387 0.68989,1.15285 0.70703,1.6875 0.0343,1.0693 -0.243,2.23119 -0.72071,4.63672 -1.35144,6.80522 -4.69811,19.1679 -7.89062,29.20117 l 0.002,0 -0.78906,2.48437 a 1.4500413,1.4500413 0 0 1 -1.2793,1.00586 l -2.12109,0.15235 c -1.266626,0.091 -4.041297,0.16767 -6.332031,0.18164 l -4.115235,0.0254 A 1.4500413,1.4500413 0 0 1 86.40625,210.9375 l 0.164062,-3.49023 c 0.337039,-7.15626 1.555495,-18.33533 3.121094,-28.70899 0.646712,-4.28507 0.948538,-6.35071 1.207032,-7.5039 0.129246,-0.5766 0.105154,-0.96343 0.701171,-1.55469 0.298009,-0.29563 0.866804,-0.48864 1.201172,-0.48438 z m 50.300779,2.25586 c 3.26934,-0.41058 6.20259,0.0974 9.98633,1.66211 6.84108,2.82901 11.41361,4.61574 13.74609,5.38867 l 2.64063,0.87696 a 1.4500413,1.4500413 0 0 1 0.87109,0.79297 l 1.42383,3.23828 c 1.63674,3.72394 2.39036,5.60617 4.33985,10.82031 0.59814,1.59983 1.71498,4.74909 2.68945,7.54492 0.48723,1.39792 0.93913,2.70299 1.26953,3.67969 0.1652,0.48835 0.29994,0.89404 0.39648,1.19336 0.0483,0.14966 0.0866,0.27155 0.11719,0.375 0.0153,0.0517 0.0287,0.0981 0.043,0.15429 0.0143,0.0562 0.0527,-0.0397 0.0527,0.4043 0,3.1e-4 -0.0331,0.31408 -0.0332,0.31445 -8e-5,3.8e-4 -0.0407,0.14649 -0.0606,0.19922 -0.0397,0.10546 -0.0744,0.16865 -0.10351,0.21875 -0.0581,0.1002 -0.0953,0.14621 -0.125,0.1836 -0.0594,0.0748 -0.0916,0.10459 -0.12109,0.13476 -0.0589,0.0603 -0.10202,0.10089 -0.15235,0.14649 -0.10065,0.0912 -0.21858,0.19261 -0.36328,0.31445 -0.28939,0.24368 -0.67522,0.55878 -1.09961,0.89648 -0.42628,0.3392 -0.82299,0.64396 -1.13086,0.87305 -0.15393,0.11454 -0.28261,0.20986 -0.39844,0.28906 -0.0579,0.0396 -0.10808,0.0744 -0.18359,0.11914 -0.0378,0.0224 -0.0776,0.0462 -0.16406,0.0859 -0.0432,0.0199 -0.0965,0.0453 -0.19922,0.0762 -0.0514,0.0154 -0.11674,0.0329 -0.21289,0.0469 -0.0481,0.007 -0.17338,0.0137 -0.17383,0.0137 -4.5e-4,1e-5 -0.25159,-0.0156 -0.25195,-0.0156 a 1.4500413,1.4500413 0 0 1 -0.0117,-0.002 c -7.3e-4,-1.1e-4 -0.28169,-0.0713 -0.36328,-0.10742 -0.0816,-0.0361 -0.13595,-0.0666 -0.17969,-0.0937 -0.0875,-0.0542 -0.13335,-0.0928 -0.16992,-0.12305 -0.0732,-0.0606 -0.10425,-0.0937 -0.13477,-0.125 -0.061,-0.0625 -0.0999,-0.10798 -0.14258,-0.1582 -0.0854,-0.10044 -0.17643,-0.21473 -0.2832,-0.35156 -0.21353,-0.27366 -0.48261,-0.63124 -0.76953,-1.02539 -4.02708,-5.53219 -15.61529,-16.58248 -24.37305,-23.11719 -1.85869,-1.38689 -2.75904,-1.96522 -3.1289,-2.06445 -0.36986,-0.0992 -0.74197,-0.002 -2.22657,0.48828 -1.40582,0.46464 -3.02331,0.89421 -4.08007,1.01172 -0.32952,0.0366 -0.68827,0.0957 -0.96485,0.15429 -0.27658,0.0586 -0.57907,0.20266 -0.32812,0.0684 0.35568,-0.19036 0.15917,-0.10935 0.0566,-0.004 -0.10254,0.10544 -0.25522,0.27475 -0.43164,0.48047 -0.35284,0.41142 -0.80341,0.97091 -1.24219,1.55468 -1.93124,2.56946 -3.34211,3.97771 -5.07031,4.85938 -1.65895,0.84633 -3.63991,1.00163 -5.35547,0.29101 -0.79171,-0.32793 -1.44761,-0.99498 -1.78125,-1.76562 -0.33364,-0.77064 -0.40447,-1.60678 -0.33399,-2.49219 0.14097,-1.77081 0.85059,-3.82397 2.04883,-6.26172 1.07362,-2.1842 1.74817,-3.11659 3.53321,-4.88476 3.60645,-3.57243 7.9972,-5.73991 12.92968,-6.35938 z m -28.30859,2.03321 4.84961,0.0645 c 2.68527,0.0358 5.43414,0.11305 6.44531,0.20312 l 1.48828,0.13282 a 1.4500413,1.4500413 0 0 1 0.94727,2.41601 l -0.85547,0.94727 c -1.69237,1.87324 -3.51924,5.14022 -4.58008,8.33007 -0.30578,0.91942 -0.5078,2.41123 -0.51562,3.78516 -0.008,1.37393 0.23378,2.70991 0.41211,3.0957 0.50567,1.09397 1.82122,2.32374 3.0332,2.79297 1.36303,0.52768 4.52307,0.54861 5.94336,0.0254 2.03639,-0.75017 4.87462,-3.06169 6.86133,-5.82812 0.32568,-0.45352 0.61172,-0.82491 1.04687,-1.14844 0.43515,-0.32353 1.06367,-0.50586 1.54492,-0.50586 -0.16781,0 0.26644,-0.0387 0.67774,-0.13476 0.41129,-0.0961 0.916,-0.23458 1.38281,-0.38282 l 1.83984,-0.58398 a 1.4500413,1.4500413 0 0 1 1.26563,0.19141 l 0.88867,0.61523 c 0.65013,0.45053 2.31552,1.75507 3.98633,3.09375 5.08451,4.0738 10.41337,8.99335 14.71289,13.43555 2.14976,2.22109 4.04063,4.32118 5.52148,6.15039 1.48086,1.8292 2.54876,3.33006 3.09961,4.64843 0.61059,1.46136 0.55217,3.01724 -0.0508,4.28711 -0.60294,1.26988 -1.88848,2.30451 -3.45703,2.32032 -0.36347,0.004 -0.99637,-0.13125 -1.49023,-0.41602 -0.49387,-0.28477 -1.00106,-0.68371 -1.79297,-1.35742 -1.58383,-1.34743 -4.27293,-3.82054 -9.35938,-8.51758 -1.85786,-1.71563 -3.503,-3.1908 -4.71875,-4.23828 -0.60787,-0.52374 -1.11072,-0.94196 -1.46289,-1.21875 -0.12917,-0.10152 -0.2087,-0.15865 -0.28906,-0.2168 -0.11159,-0.007 -0.29253,-0.0116 -0.50195,0.0664 -0.25262,0.0941 -0.44222,0.27446 -0.44922,0.28516 0.0826,-0.12603 -0.16992,0.5909 -0.16992,0.78125 0,0.3744 -0.0826,0.09 0.0488,0.27539 0.13147,0.18534 0.63198,0.71318 1.61328,1.65234 1.72513,1.65109 5.14169,4.79995 13.86329,12.77344 l 0.92382,0.84375 a 1.4500413,1.4500413 0 0 1 0.11133,2.02734 l -0.76562,0.8711 c -0.678,0.77219 -1.55423,1.26783 -2.47657,1.60351 -0.92233,0.33568 -1.8768,0.5372 -2.90625,0.2832 -0.69663,-0.17189 -0.93591,-0.40171 -1.4082,-0.71093 -0.47228,-0.30923 -0.99292,-0.69248 -1.49023,-1.09961 -2.32515,-1.90354 -8.81602,-7.676 -11.08789,-9.86133 -1.11171,-1.06936 -1.78526,-1.66025 -2.14454,-1.90039 -0.35927,-0.24015 -0.26605,-0.19727 -0.59179,-0.19727 0.0295,0 -0.33369,0.10702 -0.59766,0.36524 -0.26396,0.25821 -0.35937,0.60678 -0.35937,0.53906 0,0.47449 0.23677,1.03305 0.98242,1.66211 0.54717,0.46162 2.4194,2.15248 4.36328,3.92773 1.93003,1.76261 4.48073,4.04761 5.625,5.03907 0.59569,0.51612 1.14485,1.0065 1.56055,1.39062 0.20785,0.19206 0.3802,0.35548 0.51953,0.49414 0.0697,0.0693 0.13133,0.1301 0.19531,0.20117 0.064,0.0711 0.0915,-0.0779 0.32617,0.50977 0.22745,0.57009 0.0454,1.13566 -0.11718,1.41406 -0.16261,0.27841 -0.32112,0.41893 -0.46876,0.54492 -0.29526,0.25198 -0.58381,0.41658 -0.9082,0.57813 -0.64878,0.3231 -1.39455,0.5923 -2.1914,0.69922 -2.02641,0.27189 -4.04001,-0.49599 -5.83594,-2.01172 -0.9166,-0.77361 -3.57507,-3.32216 -6.2207,-5.92188 l 0,0.002 -4.28516,-4.21094 -0.30078,0.041 c -0.50952,0.0683 -0.77738,0.30179 -0.91992,0.56641 -0.13891,0.25786 -0.16409,0.56148 0.0371,0.9668 0.0592,0.0731 0.15668,0.18795 0.28126,0.32812 0.24914,0.28035 0.60602,0.66617 1.03515,1.11719 0.85826,0.90204 2.0078,2.07264 3.23047,3.2793 1.52311,1.50316 2.62535,2.62761 3.34766,3.42187 0.36115,0.39713 0.62384,0.69963 0.83398,0.99414 0.10507,0.14726 0.1996,0.26547 0.31055,0.5586 0.0555,0.14656 0.14648,0.34476 0.0957,0.75586 -0.0508,0.41109 -0.50188,1.03963 -0.94336,1.20898 -0.9049,0.34724 -1.60682,0.26057 -2.48437,0.18555 -0.87756,-0.075 -1.78731,-0.23216 -2.5918,-0.52149 -0.79171,-0.28473 -1.55945,-0.65729 -2.99024,-1.73047 -1.43078,-1.07317 -3.69212,-2.9143 -7.97851,-6.41797 -5.22303,-4.26926 -10.54704,-8.68794 -14.58008,-12.08203 -2.01652,-1.69704 -3.7094,-3.13751 -4.91015,-4.17968 -0.60038,-0.52109 -1.07639,-0.94167 -1.41797,-1.25391 -0.17079,-0.15612 -0.30707,-0.28353 -0.42188,-0.39844 -0.0574,-0.0575 -0.10806,-0.10757 -0.17187,-0.18164 -0.0319,-0.037 -0.0675,-0.0781 -0.11914,-0.15234 -0.0517,-0.0742 -0.13991,-0.12358 -0.23243,-0.51563 a 1.4500413,1.4500413 0 0 1 0,-0.002 c -0.0911,-0.38618 -0.0407,-0.42673 -0.0332,-0.51172 0.007,-0.085 0.017,-0.14644 0.0273,-0.20898 0.0207,-0.1251 0.0473,-0.24982 0.0801,-0.39844 0.0655,-0.29724 0.15888,-0.67638 0.27539,-1.12891 0.23302,-0.90505 0.55938,-2.09632 0.92774,-3.37109 1.2661,-4.3815 2.57771,-9.42185 3.61133,-13.76367 1.03361,-4.34182 1.79126,-8.07408 1.93554,-9.49414 l 0.0723,-0.71094 a 1.4500413,1.4500413 0 0 1 1.46289,-1.30273 z m 73.2168,2.5332 3.19335,0.0684 a 1.4500413,1.4500413 0 0 1 1.24024,0.75195 l 0.64844,1.18359 c 0.89284,1.62753 1.75554,4.24724 2.63672,7.55079 0.88117,3.30354 1.73514,7.2373 2.41015,11.23437 0.43991,2.6049 0.89399,5.67587 1.22071,8.12891 0.16335,1.22651 0.29518,2.29566 0.37695,3.08789 0.0409,0.39611 0.0696,0.71931 0.084,0.98242 0.007,0.13155 0.0118,0.24494 0.008,0.38086 -0.002,0.068 -0.003,0.13738 -0.0234,0.26172 -0.02,0.12434 0.11515,0.29695 -0.41797,0.83008 -0.33972,0.33964 -0.49041,0.33097 -0.60352,0.36914 -0.1131,0.0382 -0.18751,0.0542 -0.25781,0.0684 -0.1406,0.0283 -0.25843,0.0437 -0.39453,0.0586 -0.2722,0.0297 -0.59759,0.0519 -0.98438,0.0723 -0.77356,0.0407 -1.77961,0.0699 -2.85546,0.0859 -2.1517,0.0321 -4.52929,0.0165 -5.86914,-0.0879 -0.9156,-0.0713 -1.58179,-0.0813 -2.25586,-0.1875 -0.67408,-0.10619 -1.46809,-0.41226 -2.00586,-1 -1.07554,-1.17548 -1.26857,-2.55293 -2.25586,-5.54297 -2.1369,-6.47164 -5.77097,-16.23745 -7.61719,-20.49218 -0.5707,-1.31519 -0.91711,-2.15011 -1.12109,-2.79688 -0.10199,-0.32339 -0.18368,-0.58972 -0.19141,-0.98437 -0.008,-0.39466 0.226,-1.15952 0.7832,-1.50391 0.58403,-0.36094 0.89395,-0.39281 1.51367,-0.58008 0.61973,-0.18727 1.38476,-0.39597 2.20313,-0.60351 1.63675,-0.41509 3.4606,-0.82473 4.72461,-1.02149 1.64505,-0.25607 3.68749,-0.36016 5.81055,-0.31445 z"
         id="path6703-5-7-5"
         style="fill:#616363;stroke:#75787a"
         inkscape:original="M 89.710938 165.38477 C 88.116357 165.84208 88.083518 165.93697 86.861328 173.57031 C 84.494628 188.3518 83.061514 201.80432 82.902344 210.72656 L 82.841797 214.11328 L 83.585938 214.78125 C 84.799668 215.8698 86.687609 216.05917 94.667969 215.89648 C 98.440669 215.81956 101.94283 215.65424 102.45117 215.52734 C 103.83691 215.1814 104.37096 214.45901 105.23828 211.76172 L 106.02148 209.32617 L 116.26172 217.85156 C 134.32517 232.88978 136.01046 234.15743 139.08203 235.01562 C 139.90238 235.2449 141.15434 235.33982 142.80273 235.29492 C 145.38615 235.22454 146.6606 234.82057 147.90625 233.68164 C 148.36953 233.25807 148.45963 233.25322 149.44141 233.59961 C 152.91596 234.8255 157.56958 233.78845 159.68555 231.31641 C 160.43304 230.44315 160.47458 230.42776 161.74219 230.55859 C 163.19474 230.70851 165.39317 230.2382 166.95117 229.44336 C 168.24995 228.78077 169.94073 227.19251 170.48633 226.12305 C 170.86499 225.38082 171.07937 225.23171 171.94727 225.10156 C 174.42108 224.73059 176.92003 222.87819 178.04492 220.58398 C 178.53191 219.59078 178.63167 219.01564 178.66797 216.99023 C 178.6917 215.66377 178.7705 214.48458 178.8418 214.36914 C 178.91314 214.25371 179.40644 213.85826 179.9375 213.49023 L 180.90234 212.82031 L 181.7793 213.31445 C 183.67801 214.38085 186.3283 214.66624 194.13086 214.64844 C 202.30681 214.62977 202.85221 214.53575 203.47266 213.05078 C 203.83073 212.19381 203.67745 210.09227 202.75391 203.19922 C 200.65425 187.52798 196.96295 174.87463 193.97656 173.11133 C 193.54583 172.85701 192.2623 172.60345 190.50977 172.42578 C 185.63043 171.9311 180.15487 172.68585 173.7207 174.74023 L 170.22266 175.85742 L 167.80664 175.06641 C 165.62915 174.35335 161.16568 172.58734 153.80078 169.52734 C 147.88512 167.06947 141.85891 167.14603 135.78711 169.75391 L 133.79492 170.60938 L 129.60547 170.34766 C 127.30185 170.20403 122.65 170.02357 119.26758 169.94727 C 113.3047 169.81282 113.01993 169.786 109.92383 169.01367 C 102.46114 167.15206 90.831307 165.06346 89.710938 165.38477 z M 92.978516 170.67969 C 93.257486 170.74425 95.551675 171.17113 98.078125 171.62891 C 102.23404 172.38196 106.4278 173.26614 108.80078 173.89062 C 109.91918 174.18494 109.92304 174.3157 108.96875 179.12109 C 107.64136 185.8052 104.29585 198.18242 101.11914 208.16602 L 100.33008 210.65039 L 98.208984 210.80273 C 97.042304 210.88654 94.234533 210.96667 91.970703 210.98047 L 87.855469 211.00586 L 88.019531 207.51562 C 88.352151 200.45318 89.56584 189.28608 91.125 178.95508 C 92.41859 170.38383 92.384526 170.54225 92.978516 170.67969 z M 143.2832 172.89062 C 146.31767 172.50953 148.88033 172.94254 152.5332 174.45312 C 159.38538 177.28672 163.95064 179.07489 166.37695 179.87891 L 169.01758 180.75586 L 170.44141 183.99414 C 172.072 187.7041 172.80532 189.53177 174.75195 194.73828 C 175.92553 197.87718 179.22852 207.35368 179.22852 207.58203 C 179.22852 207.62156 178.54832 208.1938 177.7168 208.85547 C 176.88527 209.51713 176.16574 210.05192 176.11914 210.04492 C 176.07253 210.03756 175.57942 209.40515 175.02148 208.63867 C 170.7676 202.79491 159.23265 191.84545 150.34375 185.21289 C 146.62692 182.43953 146.63419 182.4408 143.66602 183.42188 C 142.34589 183.8582 140.64257 184.28444 139.88086 184.36914 C 139.11914 184.45379 138.30144 184.62708 138.06445 184.75391 C 137.82747 184.88074 136.88583 185.97842 135.97266 187.19336 C 134.09033 189.69774 132.8677 190.88524 131.40234 191.63281 C 130.22997 192.23091 128.38077 192.33934 127.25977 191.875 C 125.39046 191.10071 125.63593 188.02033 127.93945 183.33398 C 128.98977 181.19717 129.44133 180.57339 131.19141 178.83984 C 134.59144 175.47189 138.65459 173.47192 143.2832 172.89062 z M 114.77344 174.93359 L 119.62305 174.99805 C 122.28996 175.03366 125.14063 175.12241 125.95898 175.19531 L 127.44727 175.32812 L 126.5918 176.27539 C 124.69728 178.37239 122.83402 181.74995 121.71289 185.12109 C 120.94497 187.43003 120.92171 191.45194 121.66797 193.06641 C 122.36611 194.57674 123.88483 195.98045 125.49414 196.60352 C 127.36615 197.32824 130.54731 197.34434 132.46289 196.63867 C 134.94472 195.7244 137.86841 193.2631 140 190.29492 C 140.58316 189.48286 140.90348 189.24414 141.41406 189.24414 C 141.77733 189.24414 142.90223 188.98148 143.91406 188.66016 L 145.75391 188.07617 L 146.64258 188.69141 C 147.13174 189.03039 148.8901 190.39561 150.54883 191.72461 C 160.59976 199.77758 171.73731 211.28489 173.45117 215.38672 C 174.35764 217.55621 173.21277 219.96673 171.26758 219.98633 C 170.40804 219.99501 169.79428 219.47262 159.62305 210.08008 C 155.88902 206.63191 153.0038 204.14588 152.625 204.05078 C 151.72907 203.82591 150.48823 204.28818 150.00391 205.02734 C 149.78038 205.36851 149.59766 206.07745 149.59766 206.60352 C 149.59766 207.4987 149.73322 207.68908 151.70703 209.57812 C 153.45715 211.25313 156.87098 214.40044 165.59375 222.375 L 166.51758 223.21875 L 165.75195 224.08984 C 164.87158 225.09253 162.925 225.80132 161.80664 225.52539 C 161.43642 225.43404 160.38917 224.74747 159.47852 224.00195 C 157.24679 222.17489 150.67184 216.32657 148.47852 214.2168 C 146.23094 212.05484 145.72143 211.71484 144.73633 211.71484 C 143.6487 211.71484 142.33008 213.00508 142.33008 214.06836 C 142.33008 215.0528 142.84944 216.01388 143.82617 216.83789 C 144.2641 217.20735 146.2075 218.95774 148.14648 220.72852 C 150.08545 222.49929 152.62995 224.7785 153.80078 225.79297 C 154.97163 226.80744 155.96376 227.72465 156.00586 227.83008 C 156.14172 228.17061 154.5937 228.94138 153.47266 229.0918 C 151.89749 229.30315 150.35835 228.75439 148.76562 227.41016 C 148.02315 226.78351 145.25953 224.1513 142.625 221.5625 L 137.83398 216.85547 L 136.83008 216.99023 C 134.9711 217.23952 134.00758 219.02788 134.85547 220.65625 C 135.03839 221.00754 137.20501 223.28417 139.66992 225.7168 C 142.69865 228.70586 144.04191 230.18348 143.8125 230.27148 C 143.09575 230.54652 140.97305 230.36509 139.74609 229.92383 C 138.26715 229.39193 137.77614 229.0235 129.20508 222.01758 C 118.77033 213.4883 107.9195 204.3557 107.8457 204.04297 C 107.80782 203.8824 108.37361 201.68419 109.10352 199.1582 C 111.65203 190.33879 114.36686 178.93482 114.70117 175.64453 L 114.77344 174.93359 z M 187.97852 177.4668 L 191.17188 177.53516 L 191.82031 178.71875 C 193.32367 181.45916 195.37385 189.1429 196.70898 197.04883 C 197.58114 202.21325 198.52353 209.29092 198.36133 209.45312 C 198.1341 209.6803 190.95027 209.78777 188.53516 209.59961 C 184.73634 209.30364 185.27136 209.8865 183.28125 203.85938 C 181.12736 197.33627 177.50828 187.60422 175.61719 183.24609 C 174.48644 180.64024 174.26305 179.92805 174.51953 179.76953 C 175.14619 179.38224 180.08721 178.12903 182.42188 177.76562 C 183.94286 177.52886 185.92554 177.4226 187.97852 177.4668 z "
         inkscape:radius="-1.4498963"
         sodipodi:type="inkscape:offset" />
      <path
         transform="matrix(0.92748578,0.50374556,-0.50374556,0.92748578,261.9357,423.48762)"
         d="m 90.111328,166.7793 c -0.38714,0.11102 -0.482159,0.16916 -0.453125,0.14648 0.02903,-0.0227 -0.01155,-0.0385 -0.142578,0.33789 -0.262056,0.75281 -0.611733,2.71956 -1.222656,6.53516 -2.359435,14.73611 -3.784541,28.16008 -3.941407,36.95312 l -0.04883,2.72461 0.251954,0.22656 0,-0.002 c 0.359798,0.32269 0.700257,0.51525 2.179687,0.66406 1.47943,0.14881 3.927908,0.1631 7.904297,0.082 1.874326,-0.0382 3.682965,-0.0981 5.076172,-0.16407 0.696606,-0.033 1.289666,-0.0687 1.726566,-0.10156 0.43689,-0.0329 0.83891,-0.10566 0.6582,-0.0605 0.50523,-0.12612 0.54525,-0.14867 0.77344,-0.45703 0.22818,-0.30836 0.56571,-1.04371 0.98437,-2.3457 l 0.7832,-2.43555 a 1.4500413,1.4500413 0 0 1 2.3086,-0.67187 l 10.24023,8.52539 c 9.03008,7.51774 13.97183,11.59548 16.97657,13.85547 3.00473,2.25999 3.88285,2.62954 5.30664,3.02734 0.55195,0.15427 1.71819,0.2694 3.29101,0.22656 2.44542,-0.0666 3.15588,-0.31256 4.16406,-1.23437 0.26416,-0.24151 0.79908,-0.67092 1.47461,-0.70703 0.67554,-0.0361 1.01547,0.14959 1.52149,0.32812 2.84955,1.00538 7.09683,-0.033 8.66015,-1.85937 0.37964,-0.44352 0.71624,-0.90752 1.4336,-1.17188 0.71736,-0.26436 1.23186,-0.15016 1.87304,-0.084 0.99591,0.10279 3.12993,-0.3157 4.40235,-0.96485 0.91704,-0.46784 2.64371,-2.18053 2.90234,-2.6875 0.22181,-0.43477 0.49525,-0.91333 1.00781,-1.27148 0.51257,-0.35815 1.03236,-0.45087 1.5293,-0.52539 1.91538,-0.28723 4.12274,-1.91357 5.00977,-3.72266 0.42404,-0.86481 0.44102,-0.99773 0.47656,-2.98047 0.0122,-0.68424 0.0385,-1.32854 0.0723,-1.83593 0.0169,-0.2537 0.0336,-0.47101 0.0566,-0.66211 0.0115,-0.0956 0.0245,-0.18112 0.0449,-0.28516 0.0205,-0.10404 -0.0527,-0.14112 0.21484,-0.57422 a 1.4500413,1.4500413 0 0 1 0.002,0 c 0.21605,-0.34959 0.2806,-0.35168 0.38085,-0.44336 0.10025,-0.0917 0.20424,-0.17839 0.32032,-0.27148 0.23215,-0.18618 0.50817,-0.39097 0.80078,-0.59375 l 0.96484,-0.66992 a 1.4500413,1.4500413 0 0 1 1.53711,-0.0723 l 0.87695,0.49414 c 1.49275,0.83839 3.87027,1.16616 11.63672,1.14844 4.08249,-0.009 6.28608,-0.0613 7.26367,-0.22852 0.4888,-0.0836 0.59671,-0.17198 0.5918,-0.16797 -0.005,0.004 0.0243,-0.004 0.15235,-0.31054 -0.0119,0.0284 0.11775,-0.5714 0.0137,-1.99805 -0.10408,-1.42665 -0.37144,-3.66379 -0.83203,-7.10156 -1.0418,-7.77569 -2.48004,-14.80314 -4.00977,-20.04688 -0.76486,-2.62187 -1.55576,-4.801 -2.30273,-6.37109 -0.74698,-1.57009 -1.55822,-2.49392 -1.76368,-2.61523 0.14593,0.0862 -0.25433,-0.0927 -0.7832,-0.19727 -0.52886,-0.10455 -1.25101,-0.20753 -2.09375,-0.29297 -4.6238,-0.46877 -9.89603,0.23877 -16.20117,2.25195 l -3.49805,1.11719 a 1.4500413,1.4500413 0 0 1 -0.89258,-0.004 l -2.41601,-0.79102 c -2.29345,-0.75104 -6.73728,-2.51237 -14.11133,-5.57617 -5.58363,-2.31992 -11.12314,-2.25591 -16.88476,0.21875 l -1.99219,0.85547 a 1.4500413,1.4500413 0 0 1 -0.66211,0.11523 l -4.18946,-0.26172 c -2.2579,-0.14078 -6.92039,-0.32262 -10.28124,-0.39844 -5.96619,-0.13452 -6.55341,-0.20108 -9.66211,-0.97656 -3.68328,-0.91881 -8.43856,-1.90207 -12.388676,-2.61133 -1.97506,-0.35463 -3.752291,-0.64152 -5.080078,-0.8164 -0.663894,-0.0874 -1.218387,-0.1473 -1.607422,-0.17383 -0.389035,-0.0265 -0.764257,0.0698 -0.384766,-0.0391 z m 2.689453,2.41601 c 0.334368,0.004 0.46094,0.0623 0.503907,0.0723 -0.0272,-0.006 0.725373,0.14302 1.646484,0.31445 0.92111,0.17143 2.123579,0.39257 3.384766,0.62109 4.183452,0.75804 8.380152,1.6394 10.833982,2.28516 0.30496,0.0803 0.74225,0.14792 1.23438,0.5918 0.49213,0.44387 0.68989,1.15285 0.70703,1.6875 0.0343,1.0693 -0.243,2.23119 -0.72071,4.63672 -1.35144,6.80522 -4.69811,19.1679 -7.89062,29.20117 l 0.002,0 -0.78906,2.48437 a 1.4500413,1.4500413 0 0 1 -1.2793,1.00586 l -2.12109,0.15235 c -1.266626,0.091 -4.041297,0.16767 -6.332031,0.18164 l -4.115235,0.0254 A 1.4500413,1.4500413 0 0 1 86.40625,210.9375 l 0.164062,-3.49023 c 0.337039,-7.15626 1.555495,-18.33533 3.121094,-28.70899 0.646712,-4.28507 0.948538,-6.35071 1.207032,-7.5039 0.129246,-0.5766 0.105154,-0.96343 0.701171,-1.55469 0.298009,-0.29563 0.866804,-0.48864 1.201172,-0.48438 z m 50.300779,2.25586 c 3.26934,-0.41058 6.20259,0.0974 9.98633,1.66211 6.84108,2.82901 11.41361,4.61574 13.74609,5.38867 l 2.64063,0.87696 a 1.4500413,1.4500413 0 0 1 0.87109,0.79297 l 1.42383,3.23828 c 1.63674,3.72394 2.39036,5.60617 4.33985,10.82031 0.59814,1.59983 1.71498,4.74909 2.68945,7.54492 0.48723,1.39792 0.93913,2.70299 1.26953,3.67969 0.1652,0.48835 0.29994,0.89404 0.39648,1.19336 0.0483,0.14966 0.0866,0.27155 0.11719,0.375 0.0153,0.0517 0.0287,0.0981 0.043,0.15429 0.0143,0.0562 0.0527,-0.0397 0.0527,0.4043 0,3.1e-4 -0.0331,0.31408 -0.0332,0.31445 -8e-5,3.8e-4 -0.0407,0.14649 -0.0606,0.19922 -0.0397,0.10546 -0.0744,0.16865 -0.10351,0.21875 -0.0581,0.1002 -0.0953,0.14621 -0.125,0.1836 -0.0594,0.0748 -0.0916,0.10459 -0.12109,0.13476 -0.0589,0.0603 -0.10202,0.10089 -0.15235,0.14649 -0.10065,0.0912 -0.21858,0.19261 -0.36328,0.31445 -0.28939,0.24368 -0.67522,0.55878 -1.09961,0.89648 -0.42628,0.3392 -0.82299,0.64396 -1.13086,0.87305 -0.15393,0.11454 -0.28261,0.20986 -0.39844,0.28906 -0.0579,0.0396 -0.10808,0.0744 -0.18359,0.11914 -0.0378,0.0224 -0.0776,0.0462 -0.16406,0.0859 -0.0432,0.0199 -0.0965,0.0453 -0.19922,0.0762 -0.0514,0.0154 -0.11674,0.0329 -0.21289,0.0469 -0.0481,0.007 -0.17338,0.0137 -0.17383,0.0137 -4.5e-4,1e-5 -0.25159,-0.0156 -0.25195,-0.0156 a 1.4500413,1.4500413 0 0 1 -0.0117,-0.002 c -7.3e-4,-1.1e-4 -0.28169,-0.0713 -0.36328,-0.10742 -0.0816,-0.0361 -0.13595,-0.0666 -0.17969,-0.0937 -0.0875,-0.0542 -0.13335,-0.0928 -0.16992,-0.12305 -0.0732,-0.0606 -0.10425,-0.0937 -0.13477,-0.125 -0.061,-0.0625 -0.0999,-0.10798 -0.14258,-0.1582 -0.0854,-0.10044 -0.17643,-0.21473 -0.2832,-0.35156 -0.21353,-0.27366 -0.48261,-0.63124 -0.76953,-1.02539 -4.02708,-5.53219 -15.61529,-16.58248 -24.37305,-23.11719 -1.85869,-1.38689 -2.75904,-1.96522 -3.1289,-2.06445 -0.36986,-0.0992 -0.74197,-0.002 -2.22657,0.48828 -1.40582,0.46464 -3.02331,0.89421 -4.08007,1.01172 -0.32952,0.0366 -0.68827,0.0957 -0.96485,0.15429 -0.27658,0.0586 -0.57907,0.20266 -0.32812,0.0684 0.35568,-0.19036 0.15917,-0.10935 0.0566,-0.004 -0.10254,0.10544 -0.25522,0.27475 -0.43164,0.48047 -0.35284,0.41142 -0.80341,0.97091 -1.24219,1.55468 -1.93124,2.56946 -3.34211,3.97771 -5.07031,4.85938 -1.65895,0.84633 -3.63991,1.00163 -5.35547,0.29101 -0.79171,-0.32793 -1.44761,-0.99498 -1.78125,-1.76562 -0.33364,-0.77064 -0.40447,-1.60678 -0.33399,-2.49219 0.14097,-1.77081 0.85059,-3.82397 2.04883,-6.26172 1.07362,-2.1842 1.74817,-3.11659 3.53321,-4.88476 3.60645,-3.57243 7.9972,-5.73991 12.92968,-6.35938 z m -28.30859,2.03321 4.84961,0.0645 c 2.68527,0.0358 5.43414,0.11305 6.44531,0.20312 l 1.48828,0.13282 a 1.4500413,1.4500413 0 0 1 0.94727,2.41601 l -0.85547,0.94727 c -1.69237,1.87324 -3.51924,5.14022 -4.58008,8.33007 -0.30578,0.91942 -0.5078,2.41123 -0.51562,3.78516 -0.008,1.37393 0.23378,2.70991 0.41211,3.0957 0.50567,1.09397 1.82122,2.32374 3.0332,2.79297 1.36303,0.52768 4.52307,0.54861 5.94336,0.0254 2.03639,-0.75017 4.87462,-3.06169 6.86133,-5.82812 0.32568,-0.45352 0.61172,-0.82491 1.04687,-1.14844 0.43515,-0.32353 1.06367,-0.50586 1.54492,-0.50586 -0.16781,0 0.26644,-0.0387 0.67774,-0.13476 0.41129,-0.0961 0.916,-0.23458 1.38281,-0.38282 l 1.83984,-0.58398 a 1.4500413,1.4500413 0 0 1 1.26563,0.19141 l 0.88867,0.61523 c 0.65013,0.45053 2.31552,1.75507 3.98633,3.09375 5.08451,4.0738 10.41337,8.99335 14.71289,13.43555 2.14976,2.22109 4.04063,4.32118 5.52148,6.15039 1.48086,1.8292 2.54876,3.33006 3.09961,4.64843 0.61059,1.46136 0.55217,3.01724 -0.0508,4.28711 -0.60294,1.26988 -1.88848,2.30451 -3.45703,2.32032 -0.36347,0.004 -0.99637,-0.13125 -1.49023,-0.41602 -0.49387,-0.28477 -1.00106,-0.68371 -1.79297,-1.35742 -1.58383,-1.34743 -4.27293,-3.82054 -9.35938,-8.51758 -1.85786,-1.71563 -3.503,-3.1908 -4.71875,-4.23828 -0.60787,-0.52374 -1.11072,-0.94196 -1.46289,-1.21875 -0.12917,-0.10152 -0.2087,-0.15865 -0.28906,-0.2168 -0.11159,-0.007 -0.29253,-0.0116 -0.50195,0.0664 -0.25262,0.0941 -0.44222,0.27446 -0.44922,0.28516 0.0826,-0.12603 -0.16992,0.5909 -0.16992,0.78125 0,0.3744 -0.0826,0.09 0.0488,0.27539 0.13147,0.18534 0.63198,0.71318 1.61328,1.65234 1.72513,1.65109 5.14169,4.79995 13.86329,12.77344 l 0.92382,0.84375 a 1.4500413,1.4500413 0 0 1 0.11133,2.02734 l -0.76562,0.8711 c -0.678,0.77219 -1.55423,1.26783 -2.47657,1.60351 -0.92233,0.33568 -1.8768,0.5372 -2.90625,0.2832 -0.69663,-0.17189 -0.93591,-0.40171 -1.4082,-0.71093 -0.47228,-0.30923 -0.99292,-0.69248 -1.49023,-1.09961 -2.32515,-1.90354 -8.81602,-7.676 -11.08789,-9.86133 -1.11171,-1.06936 -1.78526,-1.66025 -2.14454,-1.90039 -0.35927,-0.24015 -0.26605,-0.19727 -0.59179,-0.19727 0.0295,0 -0.33369,0.10702 -0.59766,0.36524 -0.26396,0.25821 -0.35937,0.60678 -0.35937,0.53906 0,0.47449 0.23677,1.03305 0.98242,1.66211 0.54717,0.46162 2.4194,2.15248 4.36328,3.92773 1.93003,1.76261 4.48073,4.04761 5.625,5.03907 0.59569,0.51612 1.14485,1.0065 1.56055,1.39062 0.20785,0.19206 0.3802,0.35548 0.51953,0.49414 0.0697,0.0693 0.13133,0.1301 0.19531,0.20117 0.064,0.0711 0.0915,-0.0779 0.32617,0.50977 0.22745,0.57009 0.0454,1.13566 -0.11718,1.41406 -0.16261,0.27841 -0.32112,0.41893 -0.46876,0.54492 -0.29526,0.25198 -0.58381,0.41658 -0.9082,0.57813 -0.64878,0.3231 -1.39455,0.5923 -2.1914,0.69922 -2.02641,0.27189 -4.04001,-0.49599 -5.83594,-2.01172 -0.9166,-0.77361 -3.57507,-3.32216 -6.2207,-5.92188 l 0,0.002 -4.28516,-4.21094 -0.30078,0.041 c -0.50952,0.0683 -0.77738,0.30179 -0.91992,0.56641 -0.13891,0.25786 -0.16409,0.56148 0.0371,0.9668 0.0592,0.0731 0.15668,0.18795 0.28126,0.32812 0.24914,0.28035 0.60602,0.66617 1.03515,1.11719 0.85826,0.90204 2.0078,2.07264 3.23047,3.2793 1.52311,1.50316 2.62535,2.62761 3.34766,3.42187 0.36115,0.39713 0.62384,0.69963 0.83398,0.99414 0.10507,0.14726 0.1996,0.26547 0.31055,0.5586 0.0555,0.14656 0.14648,0.34476 0.0957,0.75586 -0.0508,0.41109 -0.50188,1.03963 -0.94336,1.20898 -0.9049,0.34724 -1.60682,0.26057 -2.48437,0.18555 -0.87756,-0.075 -1.78731,-0.23216 -2.5918,-0.52149 -0.79171,-0.28473 -1.55945,-0.65729 -2.99024,-1.73047 -1.43078,-1.07317 -3.69212,-2.9143 -7.97851,-6.41797 -5.22303,-4.26926 -10.54704,-8.68794 -14.58008,-12.08203 -2.01652,-1.69704 -3.7094,-3.13751 -4.91015,-4.17968 -0.60038,-0.52109 -1.07639,-0.94167 -1.41797,-1.25391 -0.17079,-0.15612 -0.30707,-0.28353 -0.42188,-0.39844 -0.0574,-0.0575 -0.10806,-0.10757 -0.17187,-0.18164 -0.0319,-0.037 -0.0675,-0.0781 -0.11914,-0.15234 -0.0517,-0.0742 -0.13991,-0.12358 -0.23243,-0.51563 a 1.4500413,1.4500413 0 0 1 0,-0.002 c -0.0911,-0.38618 -0.0407,-0.42673 -0.0332,-0.51172 0.007,-0.085 0.017,-0.14644 0.0273,-0.20898 0.0207,-0.1251 0.0473,-0.24982 0.0801,-0.39844 0.0655,-0.29724 0.15888,-0.67638 0.27539,-1.12891 0.23302,-0.90505 0.55938,-2.09632 0.92774,-3.37109 1.2661,-4.3815 2.57771,-9.42185 3.61133,-13.76367 1.03361,-4.34182 1.79126,-8.07408 1.93554,-9.49414 l 0.0723,-0.71094 a 1.4500413,1.4500413 0 0 1 1.46289,-1.30273 z m 73.2168,2.5332 3.19335,0.0684 a 1.4500413,1.4500413 0 0 1 1.24024,0.75195 l 0.64844,1.18359 c 0.89284,1.62753 1.75554,4.24724 2.63672,7.55079 0.88117,3.30354 1.73514,7.2373 2.41015,11.23437 0.43991,2.6049 0.89399,5.67587 1.22071,8.12891 0.16335,1.22651 0.29518,2.29566 0.37695,3.08789 0.0409,0.39611 0.0696,0.71931 0.084,0.98242 0.007,0.13155 0.0118,0.24494 0.008,0.38086 -0.002,0.068 -0.003,0.13738 -0.0234,0.26172 -0.02,0.12434 0.11515,0.29695 -0.41797,0.83008 -0.33972,0.33964 -0.49041,0.33097 -0.60352,0.36914 -0.1131,0.0382 -0.18751,0.0542 -0.25781,0.0684 -0.1406,0.0283 -0.25843,0.0437 -0.39453,0.0586 -0.2722,0.0297 -0.59759,0.0519 -0.98438,0.0723 -0.77356,0.0407 -1.77961,0.0699 -2.85546,0.0859 -2.1517,0.0321 -4.52929,0.0165 -5.86914,-0.0879 -0.9156,-0.0713 -1.58179,-0.0813 -2.25586,-0.1875 -0.67408,-0.10619 -1.46809,-0.41226 -2.00586,-1 -1.07554,-1.17548 -1.26857,-2.55293 -2.25586,-5.54297 -2.1369,-6.47164 -5.77097,-16.23745 -7.61719,-20.49218 -0.5707,-1.31519 -0.91711,-2.15011 -1.12109,-2.79688 -0.10199,-0.32339 -0.18368,-0.58972 -0.19141,-0.98437 -0.008,-0.39466 0.226,-1.15952 0.7832,-1.50391 0.58403,-0.36094 0.89395,-0.39281 1.51367,-0.58008 0.61973,-0.18727 1.38476,-0.39597 2.20313,-0.60351 1.63675,-0.41509 3.4606,-0.82473 4.72461,-1.02149 1.64505,-0.25607 3.68749,-0.36016 5.81055,-0.31445 z"
         id="path6703-5-7"
         style="fill:#616363;stroke:#75787a"
         inkscape:original="M 89.710938 165.38477 C 88.116357 165.84208 88.083518 165.93697 86.861328 173.57031 C 84.494628 188.3518 83.061514 201.80432 82.902344 210.72656 L 82.841797 214.11328 L 83.585938 214.78125 C 84.799668 215.8698 86.687609 216.05917 94.667969 215.89648 C 98.440669 215.81956 101.94283 215.65424 102.45117 215.52734 C 103.83691 215.1814 104.37096 214.45901 105.23828 211.76172 L 106.02148 209.32617 L 116.26172 217.85156 C 134.32517 232.88978 136.01046 234.15743 139.08203 235.01562 C 139.90238 235.2449 141.15434 235.33982 142.80273 235.29492 C 145.38615 235.22454 146.6606 234.82057 147.90625 233.68164 C 148.36953 233.25807 148.45963 233.25322 149.44141 233.59961 C 152.91596 234.8255 157.56958 233.78845 159.68555 231.31641 C 160.43304 230.44315 160.47458 230.42776 161.74219 230.55859 C 163.19474 230.70851 165.39317 230.2382 166.95117 229.44336 C 168.24995 228.78077 169.94073 227.19251 170.48633 226.12305 C 170.86499 225.38082 171.07937 225.23171 171.94727 225.10156 C 174.42108 224.73059 176.92003 222.87819 178.04492 220.58398 C 178.53191 219.59078 178.63167 219.01564 178.66797 216.99023 C 178.6917 215.66377 178.7705 214.48458 178.8418 214.36914 C 178.91314 214.25371 179.40644 213.85826 179.9375 213.49023 L 180.90234 212.82031 L 181.7793 213.31445 C 183.67801 214.38085 186.3283 214.66624 194.13086 214.64844 C 202.30681 214.62977 202.85221 214.53575 203.47266 213.05078 C 203.83073 212.19381 203.67745 210.09227 202.75391 203.19922 C 200.65425 187.52798 196.96295 174.87463 193.97656 173.11133 C 193.54583 172.85701 192.2623 172.60345 190.50977 172.42578 C 185.63043 171.9311 180.15487 172.68585 173.7207 174.74023 L 170.22266 175.85742 L 167.80664 175.06641 C 165.62915 174.35335 161.16568 172.58734 153.80078 169.52734 C 147.88512 167.06947 141.85891 167.14603 135.78711 169.75391 L 133.79492 170.60938 L 129.60547 170.34766 C 127.30185 170.20403 122.65 170.02357 119.26758 169.94727 C 113.3047 169.81282 113.01993 169.786 109.92383 169.01367 C 102.46114 167.15206 90.831307 165.06346 89.710938 165.38477 z M 92.978516 170.67969 C 93.257486 170.74425 95.551675 171.17113 98.078125 171.62891 C 102.23404 172.38196 106.4278 173.26614 108.80078 173.89062 C 109.91918 174.18494 109.92304 174.3157 108.96875 179.12109 C 107.64136 185.8052 104.29585 198.18242 101.11914 208.16602 L 100.33008 210.65039 L 98.208984 210.80273 C 97.042304 210.88654 94.234533 210.96667 91.970703 210.98047 L 87.855469 211.00586 L 88.019531 207.51562 C 88.352151 200.45318 89.56584 189.28608 91.125 178.95508 C 92.41859 170.38383 92.384526 170.54225 92.978516 170.67969 z M 143.2832 172.89062 C 146.31767 172.50953 148.88033 172.94254 152.5332 174.45312 C 159.38538 177.28672 163.95064 179.07489 166.37695 179.87891 L 169.01758 180.75586 L 170.44141 183.99414 C 172.072 187.7041 172.80532 189.53177 174.75195 194.73828 C 175.92553 197.87718 179.22852 207.35368 179.22852 207.58203 C 179.22852 207.62156 178.54832 208.1938 177.7168 208.85547 C 176.88527 209.51713 176.16574 210.05192 176.11914 210.04492 C 176.07253 210.03756 175.57942 209.40515 175.02148 208.63867 C 170.7676 202.79491 159.23265 191.84545 150.34375 185.21289 C 146.62692 182.43953 146.63419 182.4408 143.66602 183.42188 C 142.34589 183.8582 140.64257 184.28444 139.88086 184.36914 C 139.11914 184.45379 138.30144 184.62708 138.06445 184.75391 C 137.82747 184.88074 136.88583 185.97842 135.97266 187.19336 C 134.09033 189.69774 132.8677 190.88524 131.40234 191.63281 C 130.22997 192.23091 128.38077 192.33934 127.25977 191.875 C 125.39046 191.10071 125.63593 188.02033 127.93945 183.33398 C 128.98977 181.19717 129.44133 180.57339 131.19141 178.83984 C 134.59144 175.47189 138.65459 173.47192 143.2832 172.89062 z M 114.77344 174.93359 L 119.62305 174.99805 C 122.28996 175.03366 125.14063 175.12241 125.95898 175.19531 L 127.44727 175.32812 L 126.5918 176.27539 C 124.69728 178.37239 122.83402 181.74995 121.71289 185.12109 C 120.94497 187.43003 120.92171 191.45194 121.66797 193.06641 C 122.36611 194.57674 123.88483 195.98045 125.49414 196.60352 C 127.36615 197.32824 130.54731 197.34434 132.46289 196.63867 C 134.94472 195.7244 137.86841 193.2631 140 190.29492 C 140.58316 189.48286 140.90348 189.24414 141.41406 189.24414 C 141.77733 189.24414 142.90223 188.98148 143.91406 188.66016 L 145.75391 188.07617 L 146.64258 188.69141 C 147.13174 189.03039 148.8901 190.39561 150.54883 191.72461 C 160.59976 199.77758 171.73731 211.28489 173.45117 215.38672 C 174.35764 217.55621 173.21277 219.96673 171.26758 219.98633 C 170.40804 219.99501 169.79428 219.47262 159.62305 210.08008 C 155.88902 206.63191 153.0038 204.14588 152.625 204.05078 C 151.72907 203.82591 150.48823 204.28818 150.00391 205.02734 C 149.78038 205.36851 149.59766 206.07745 149.59766 206.60352 C 149.59766 207.4987 149.73322 207.68908 151.70703 209.57812 C 153.45715 211.25313 156.87098 214.40044 165.59375 222.375 L 166.51758 223.21875 L 165.75195 224.08984 C 164.87158 225.09253 162.925 225.80132 161.80664 225.52539 C 161.43642 225.43404 160.38917 224.74747 159.47852 224.00195 C 157.24679 222.17489 150.67184 216.32657 148.47852 214.2168 C 146.23094 212.05484 145.72143 211.71484 144.73633 211.71484 C 143.6487 211.71484 142.33008 213.00508 142.33008 214.06836 C 142.33008 215.0528 142.84944 216.01388 143.82617 216.83789 C 144.2641 217.20735 146.2075 218.95774 148.14648 220.72852 C 150.08545 222.49929 152.62995 224.7785 153.80078 225.79297 C 154.97163 226.80744 155.96376 227.72465 156.00586 227.83008 C 156.14172 228.17061 154.5937 228.94138 153.47266 229.0918 C 151.89749 229.30315 150.35835 228.75439 148.76562 227.41016 C 148.02315 226.78351 145.25953 224.1513 142.625 221.5625 L 137.83398 216.85547 L 136.83008 216.99023 C 134.9711 217.23952 134.00758 219.02788 134.85547 220.65625 C 135.03839 221.00754 137.20501 223.28417 139.66992 225.7168 C 142.69865 228.70586 144.04191 230.18348 143.8125 230.27148 C 143.09575 230.54652 140.97305 230.36509 139.74609 229.92383 C 138.26715 229.39193 137.77614 229.0235 129.20508 222.01758 C 118.77033 213.4883 107.9195 204.3557 107.8457 204.04297 C 107.80782 203.8824 108.37361 201.68419 109.10352 199.1582 C 111.65203 190.33879 114.36686 178.93482 114.70117 175.64453 L 114.77344 174.93359 z M 187.97852 177.4668 L 191.17188 177.53516 L 191.82031 178.71875 C 193.32367 181.45916 195.37385 189.1429 196.70898 197.04883 C 197.58114 202.21325 198.52353 209.29092 198.36133 209.45312 C 198.1341 209.6803 190.95027 209.78777 188.53516 209.59961 C 184.73634 209.30364 185.27136 209.8865 183.28125 203.85938 C 181.12736 197.33627 177.50828 187.60422 175.61719 183.24609 C 174.48644 180.64024 174.26305 179.92805 174.51953 179.76953 C 175.14619 179.38224 180.08721 178.12903 182.42188 177.76562 C 183.94286 177.52886 185.92554 177.4226 187.97852 177.4668 z "
         inkscape:radius="-1.4498963"
         sodipodi:type="inkscape:offset" />
      <path
         inkscape:connector-curvature="0"
         id="path4220"
         d="m 383.43023,676.70781 -15.65234,0.0527 -15.65235,0.0527 -0.25,5.30664 c -0.30344,6.40544 -2.16483,13.93788 -5.32226,21.54297 l -2.34375,5.64648 c 2.21103,-5.32557 -9.46084,13.30232 -10.83203,15.4961 l 36.80468,0 c 6.4571,-12.19769 10.63261,-24.96879 12.04688,-37.47259 l 1.20117,-10.625 z"
         style="fill:#faa633" />
      <path
         id="path5047-7-2"
         d="m 257.06223,720.61685 -8.59766,-12.33203 -3.01366,-7.74414 c -3.28437,-8.439 -4.41606,-13.39802 -4.625,-20.28516 l -0.13477,-4.47265 -15.54884,-0.0937 -15.54686,-0.0937 0.30858,5.03906 c 0.51667,8.44522 3.95495,23.86677 7.05275,31.6289 1.07079,2.6831 2.36844,5.48707 3.84569,8.35352 l 36.25977,0 z"
         style="fill:#9e78b0"
         inkscape:connector-curvature="0" />
      <path
         transform="matrix(-0.99872951,0.38071945,0.38071945,0.99872951,366.18792,231.03585)"
         d="m 90.111328,166.7793 c -0.38714,0.11102 -0.482159,0.16916 -0.453125,0.14648 0.02903,-0.0227 -0.01155,-0.0385 -0.142578,0.33789 -0.262056,0.75281 -0.611733,2.71956 -1.222656,6.53516 -2.359435,14.73611 -3.784541,28.16008 -3.941407,36.95312 l -0.04883,2.72461 0.251954,0.22656 0,-0.002 c 0.359798,0.32269 0.700257,0.51525 2.179687,0.66406 1.47943,0.14881 3.927908,0.1631 7.904297,0.082 1.874326,-0.0382 3.682965,-0.0981 5.076172,-0.16407 0.696606,-0.033 1.289666,-0.0687 1.726566,-0.10156 0.43689,-0.0329 0.83891,-0.10566 0.6582,-0.0605 0.50523,-0.12612 0.54525,-0.14867 0.77344,-0.45703 0.22818,-0.30836 0.56571,-1.04371 0.98437,-2.3457 l 0.7832,-2.43555 a 1.4500413,1.4500413 0 0 1 2.3086,-0.67187 l 10.24023,8.52539 c 9.03008,7.51774 13.97183,11.59548 16.97657,13.85547 3.00473,2.25999 3.88285,2.62954 5.30664,3.02734 0.55195,0.15427 1.71819,0.2694 3.29101,0.22656 2.44542,-0.0666 3.15588,-0.31256 4.16406,-1.23437 0.26416,-0.24151 0.79908,-0.67092 1.47461,-0.70703 0.67554,-0.0361 1.01547,0.14959 1.52149,0.32812 2.84955,1.00538 7.09683,-0.033 8.66015,-1.85937 0.37964,-0.44352 0.71624,-0.90752 1.4336,-1.17188 0.71736,-0.26436 1.23186,-0.15016 1.87304,-0.084 0.99591,0.10279 3.12993,-0.3157 4.40235,-0.96485 0.91704,-0.46784 2.64371,-2.18053 2.90234,-2.6875 0.22181,-0.43477 0.49525,-0.91333 1.00781,-1.27148 0.51257,-0.35815 1.03236,-0.45087 1.5293,-0.52539 1.91538,-0.28723 4.12274,-1.91357 5.00977,-3.72266 0.42404,-0.86481 0.44102,-0.99773 0.47656,-2.98047 0.0122,-0.68424 0.0385,-1.32854 0.0723,-1.83593 0.0169,-0.2537 0.0336,-0.47101 0.0566,-0.66211 0.0115,-0.0956 0.0245,-0.18112 0.0449,-0.28516 0.0205,-0.10404 -0.0527,-0.14112 0.21484,-0.57422 a 1.4500413,1.4500413 0 0 1 0.002,0 c 0.21605,-0.34959 0.2806,-0.35168 0.38085,-0.44336 0.10025,-0.0917 0.20424,-0.17839 0.32032,-0.27148 0.23215,-0.18618 0.50817,-0.39097 0.80078,-0.59375 l 0.96484,-0.66992 a 1.4500413,1.4500413 0 0 1 1.53711,-0.0723 l 0.87695,0.49414 c 1.49275,0.83839 3.87027,1.16616 11.63672,1.14844 4.08249,-0.009 6.28608,-0.0613 7.26367,-0.22852 0.4888,-0.0836 0.59671,-0.17198 0.5918,-0.16797 -0.005,0.004 0.0243,-0.004 0.15235,-0.31054 -0.0119,0.0284 0.11775,-0.5714 0.0137,-1.99805 -0.10408,-1.42665 -0.37144,-3.66379 -0.83203,-7.10156 -1.0418,-7.77569 -2.48004,-14.80314 -4.00977,-20.04688 -0.76486,-2.62187 -1.55576,-4.801 -2.30273,-6.37109 -0.74698,-1.57009 -1.55822,-2.49392 -1.76368,-2.61523 0.14593,0.0862 -0.25433,-0.0927 -0.7832,-0.19727 -0.52886,-0.10455 -1.25101,-0.20753 -2.09375,-0.29297 -4.6238,-0.46877 -9.89603,0.23877 -16.20117,2.25195 l -3.49805,1.11719 a 1.4500413,1.4500413 0 0 1 -0.89258,-0.004 l -2.41601,-0.79102 c -2.29345,-0.75104 -6.73728,-2.51237 -14.11133,-5.57617 -5.58363,-2.31992 -11.12314,-2.25591 -16.88476,0.21875 l -1.99219,0.85547 a 1.4500413,1.4500413 0 0 1 -0.66211,0.11523 l -4.18946,-0.26172 c -2.2579,-0.14078 -6.92039,-0.32262 -10.28124,-0.39844 -5.96619,-0.13452 -6.55341,-0.20108 -9.66211,-0.97656 -3.68328,-0.91881 -8.43856,-1.90207 -12.388676,-2.61133 -1.97506,-0.35463 -3.752291,-0.64152 -5.080078,-0.8164 -0.663894,-0.0874 -1.218387,-0.1473 -1.607422,-0.17383 -0.389035,-0.0265 -0.764257,0.0698 -0.384766,-0.0391 z m 2.689453,2.41601 c 0.334368,0.004 0.46094,0.0623 0.503907,0.0723 -0.0272,-0.006 0.725373,0.14302 1.646484,0.31445 0.92111,0.17143 2.123579,0.39257 3.384766,0.62109 4.183452,0.75804 8.380152,1.6394 10.833982,2.28516 0.30496,0.0803 0.74225,0.14792 1.23438,0.5918 0.49213,0.44387 0.68989,1.15285 0.70703,1.6875 0.0343,1.0693 -0.243,2.23119 -0.72071,4.63672 -1.35144,6.80522 -4.69811,19.1679 -7.89062,29.20117 l 0.002,0 -0.78906,2.48437 a 1.4500413,1.4500413 0 0 1 -1.2793,1.00586 l -2.12109,0.15235 c -1.266626,0.091 -4.041297,0.16767 -6.332031,0.18164 l -4.115235,0.0254 A 1.4500413,1.4500413 0 0 1 86.40625,210.9375 l 0.164062,-3.49023 c 0.337039,-7.15626 1.555495,-18.33533 3.121094,-28.70899 0.646712,-4.28507 0.948538,-6.35071 1.207032,-7.5039 0.129246,-0.5766 0.105154,-0.96343 0.701171,-1.55469 0.298009,-0.29563 0.866804,-0.48864 1.201172,-0.48438 z m 50.300779,2.25586 c 3.26934,-0.41058 6.20259,0.0974 9.98633,1.66211 6.84108,2.82901 11.41361,4.61574 13.74609,5.38867 l 2.64063,0.87696 a 1.4500413,1.4500413 0 0 1 0.87109,0.79297 l 1.42383,3.23828 c 1.63674,3.72394 2.39036,5.60617 4.33985,10.82031 0.59814,1.59983 1.71498,4.74909 2.68945,7.54492 0.48723,1.39792 0.93913,2.70299 1.26953,3.67969 0.1652,0.48835 0.29994,0.89404 0.39648,1.19336 0.0483,0.14966 0.0866,0.27155 0.11719,0.375 0.0153,0.0517 0.0287,0.0981 0.043,0.15429 0.0143,0.0562 0.0527,-0.0397 0.0527,0.4043 0,3.1e-4 -0.0331,0.31408 -0.0332,0.31445 -8e-5,3.8e-4 -0.0407,0.14649 -0.0606,0.19922 -0.0397,0.10546 -0.0744,0.16865 -0.10351,0.21875 -0.0581,0.1002 -0.0953,0.14621 -0.125,0.1836 -0.0594,0.0748 -0.0916,0.10459 -0.12109,0.13476 -0.0589,0.0603 -0.10202,0.10089 -0.15235,0.14649 -0.10065,0.0912 -0.21858,0.19261 -0.36328,0.31445 -0.28939,0.24368 -0.67522,0.55878 -1.09961,0.89648 -0.42628,0.3392 -0.82299,0.64396 -1.13086,0.87305 -0.15393,0.11454 -0.28261,0.20986 -0.39844,0.28906 -0.0579,0.0396 -0.10808,0.0744 -0.18359,0.11914 -0.0378,0.0224 -0.0776,0.0462 -0.16406,0.0859 -0.0432,0.0199 -0.0965,0.0453 -0.19922,0.0762 -0.0514,0.0154 -0.11674,0.0329 -0.21289,0.0469 -0.0481,0.007 -0.17338,0.0137 -0.17383,0.0137 -4.5e-4,1e-5 -0.25159,-0.0156 -0.25195,-0.0156 a 1.4500413,1.4500413 0 0 1 -0.0117,-0.002 c -7.3e-4,-1.1e-4 -0.28169,-0.0713 -0.36328,-0.10742 -0.0816,-0.0361 -0.13595,-0.0666 -0.17969,-0.0937 -0.0875,-0.0542 -0.13335,-0.0928 -0.16992,-0.12305 -0.0732,-0.0606 -0.10425,-0.0937 -0.13477,-0.125 -0.061,-0.0625 -0.0999,-0.10798 -0.14258,-0.1582 -0.0854,-0.10044 -0.17643,-0.21473 -0.2832,-0.35156 -0.21353,-0.27366 -0.48261,-0.63124 -0.76953,-1.02539 -4.02708,-5.53219 -15.61529,-16.58248 -24.37305,-23.11719 -1.85869,-1.38689 -2.75904,-1.96522 -3.1289,-2.06445 -0.36986,-0.0992 -0.74197,-0.002 -2.22657,0.48828 -1.40582,0.46464 -3.02331,0.89421 -4.08007,1.01172 -0.32952,0.0366 -0.68827,0.0957 -0.96485,0.15429 -0.27658,0.0586 -0.57907,0.20266 -0.32812,0.0684 0.35568,-0.19036 0.15917,-0.10935 0.0566,-0.004 -0.10254,0.10544 -0.25522,0.27475 -0.43164,0.48047 -0.35284,0.41142 -0.80341,0.97091 -1.24219,1.55468 -1.93124,2.56946 -3.34211,3.97771 -5.07031,4.85938 -1.65895,0.84633 -3.63991,1.00163 -5.35547,0.29101 -0.79171,-0.32793 -1.44761,-0.99498 -1.78125,-1.76562 -0.33364,-0.77064 -0.40447,-1.60678 -0.33399,-2.49219 0.14097,-1.77081 0.85059,-3.82397 2.04883,-6.26172 1.07362,-2.1842 1.74817,-3.11659 3.53321,-4.88476 3.60645,-3.57243 7.9972,-5.73991 12.92968,-6.35938 z m -28.30859,2.03321 4.84961,0.0645 c 2.68527,0.0358 5.43414,0.11305 6.44531,0.20312 l 1.48828,0.13282 a 1.4500413,1.4500413 0 0 1 0.94727,2.41601 l -0.85547,0.94727 c -1.69237,1.87324 -3.51924,5.14022 -4.58008,8.33007 -0.30578,0.91942 -0.5078,2.41123 -0.51562,3.78516 -0.008,1.37393 0.23378,2.70991 0.41211,3.0957 0.50567,1.09397 1.82122,2.32374 3.0332,2.79297 1.36303,0.52768 4.52307,0.54861 5.94336,0.0254 2.03639,-0.75017 4.87462,-3.06169 6.86133,-5.82812 0.32568,-0.45352 0.61172,-0.82491 1.04687,-1.14844 0.43515,-0.32353 1.06367,-0.50586 1.54492,-0.50586 -0.16781,0 0.26644,-0.0387 0.67774,-0.13476 0.41129,-0.0961 0.916,-0.23458 1.38281,-0.38282 l 1.83984,-0.58398 a 1.4500413,1.4500413 0 0 1 1.26563,0.19141 l 0.88867,0.61523 c 0.65013,0.45053 2.31552,1.75507 3.98633,3.09375 5.08451,4.0738 10.41337,8.99335 14.71289,13.43555 2.14976,2.22109 4.04063,4.32118 5.52148,6.15039 1.48086,1.8292 2.54876,3.33006 3.09961,4.64843 0.61059,1.46136 0.55217,3.01724 -0.0508,4.28711 -0.60294,1.26988 -1.88848,2.30451 -3.45703,2.32032 -0.36347,0.004 -0.99637,-0.13125 -1.49023,-0.41602 -0.49387,-0.28477 -1.00106,-0.68371 -1.79297,-1.35742 -1.58383,-1.34743 -4.27293,-3.82054 -9.35938,-8.51758 -1.85786,-1.71563 -3.503,-3.1908 -4.71875,-4.23828 -0.60787,-0.52374 -1.11072,-0.94196 -1.46289,-1.21875 -0.12917,-0.10152 -0.2087,-0.15865 -0.28906,-0.2168 -0.11159,-0.007 -0.29253,-0.0116 -0.50195,0.0664 -0.25262,0.0941 -0.44222,0.27446 -0.44922,0.28516 0.0826,-0.12603 -0.16992,0.5909 -0.16992,0.78125 0,0.3744 -0.0826,0.09 0.0488,0.27539 0.13147,0.18534 0.63198,0.71318 1.61328,1.65234 1.72513,1.65109 5.14169,4.79995 13.86329,12.77344 l 0.92382,0.84375 a 1.4500413,1.4500413 0 0 1 0.11133,2.02734 l -0.76562,0.8711 c -0.678,0.77219 -1.55423,1.26783 -2.47657,1.60351 -0.92233,0.33568 -1.8768,0.5372 -2.90625,0.2832 -0.69663,-0.17189 -0.93591,-0.40171 -1.4082,-0.71093 -0.47228,-0.30923 -0.99292,-0.69248 -1.49023,-1.09961 -2.32515,-1.90354 -8.81602,-7.676 -11.08789,-9.86133 -1.11171,-1.06936 -1.78526,-1.66025 -2.14454,-1.90039 -0.35927,-0.24015 -0.26605,-0.19727 -0.59179,-0.19727 0.0295,0 -0.33369,0.10702 -0.59766,0.36524 -0.26396,0.25821 -0.35937,0.60678 -0.35937,0.53906 0,0.47449 0.23677,1.03305 0.98242,1.66211 0.54717,0.46162 2.4194,2.15248 4.36328,3.92773 1.93003,1.76261 4.48073,4.04761 5.625,5.03907 0.59569,0.51612 1.14485,1.0065 1.56055,1.39062 0.20785,0.19206 0.3802,0.35548 0.51953,0.49414 0.0697,0.0693 0.13133,0.1301 0.19531,0.20117 0.064,0.0711 0.0915,-0.0779 0.32617,0.50977 0.22745,0.57009 0.0454,1.13566 -0.11718,1.41406 -0.16261,0.27841 -0.32112,0.41893 -0.46876,0.54492 -0.29526,0.25198 -0.58381,0.41658 -0.9082,0.57813 -0.64878,0.3231 -1.39455,0.5923 -2.1914,0.69922 -2.02641,0.27189 -4.04001,-0.49599 -5.83594,-2.01172 -0.9166,-0.77361 -3.57507,-3.32216 -6.2207,-5.92188 l 0,0.002 -4.28516,-4.21094 -0.30078,0.041 c -0.50952,0.0683 -0.77738,0.30179 -0.91992,0.56641 -0.13891,0.25786 -0.16409,0.56148 0.0371,0.9668 0.0592,0.0731 0.15668,0.18795 0.28126,0.32812 0.24914,0.28035 0.60602,0.66617 1.03515,1.11719 0.85826,0.90204 2.0078,2.07264 3.23047,3.2793 1.52311,1.50316 2.62535,2.62761 3.34766,3.42187 0.36115,0.39713 0.62384,0.69963 0.83398,0.99414 0.10507,0.14726 0.1996,0.26547 0.31055,0.5586 0.0555,0.14656 0.14648,0.34476 0.0957,0.75586 -0.0508,0.41109 -0.50188,1.03963 -0.94336,1.20898 -0.9049,0.34724 -1.60682,0.26057 -2.48437,0.18555 -0.87756,-0.075 -1.78731,-0.23216 -2.5918,-0.52149 -0.79171,-0.28473 -1.55945,-0.65729 -2.99024,-1.73047 -1.43078,-1.07317 -3.69212,-2.9143 -7.97851,-6.41797 -5.22303,-4.26926 -10.54704,-8.68794 -14.58008,-12.08203 -2.01652,-1.69704 -3.7094,-3.13751 -4.91015,-4.17968 -0.60038,-0.52109 -1.07639,-0.94167 -1.41797,-1.25391 -0.17079,-0.15612 -0.30707,-0.28353 -0.42188,-0.39844 -0.0574,-0.0575 -0.10806,-0.10757 -0.17187,-0.18164 -0.0319,-0.037 -0.0675,-0.0781 -0.11914,-0.15234 -0.0517,-0.0742 -0.13991,-0.12358 -0.23243,-0.51563 a 1.4500413,1.4500413 0 0 1 0,-0.002 c -0.0911,-0.38618 -0.0407,-0.42673 -0.0332,-0.51172 0.007,-0.085 0.017,-0.14644 0.0273,-0.20898 0.0207,-0.1251 0.0473,-0.24982 0.0801,-0.39844 0.0655,-0.29724 0.15888,-0.67638 0.27539,-1.12891 0.23302,-0.90505 0.55938,-2.09632 0.92774,-3.37109 1.2661,-4.3815 2.57771,-9.42185 3.61133,-13.76367 1.03361,-4.34182 1.79126,-8.07408 1.93554,-9.49414 l 0.0723,-0.71094 a 1.4500413,1.4500413 0 0 1 1.46289,-1.30273 z m 73.2168,2.5332 3.19335,0.0684 a 1.4500413,1.4500413 0 0 1 1.24024,0.75195 l 0.64844,1.18359 c 0.89284,1.62753 1.75554,4.24724 2.63672,7.55079 0.88117,3.30354 1.73514,7.2373 2.41015,11.23437 0.43991,2.6049 0.89399,5.67587 1.22071,8.12891 0.16335,1.22651 0.29518,2.29566 0.37695,3.08789 0.0409,0.39611 0.0696,0.71931 0.084,0.98242 0.007,0.13155 0.0118,0.24494 0.008,0.38086 -0.002,0.068 -0.003,0.13738 -0.0234,0.26172 -0.02,0.12434 0.11515,0.29695 -0.41797,0.83008 -0.33972,0.33964 -0.49041,0.33097 -0.60352,0.36914 -0.1131,0.0382 -0.18751,0.0542 -0.25781,0.0684 -0.1406,0.0283 -0.25843,0.0437 -0.39453,0.0586 -0.2722,0.0297 -0.59759,0.0519 -0.98438,0.0723 -0.77356,0.0407 -1.77961,0.0699 -2.85546,0.0859 -2.1517,0.0321 -4.52929,0.0165 -5.86914,-0.0879 -0.9156,-0.0713 -1.58179,-0.0813 -2.25586,-0.1875 -0.67408,-0.10619 -1.46809,-0.41226 -2.00586,-1 -1.07554,-1.17548 -1.26857,-2.55293 -2.25586,-5.54297 -2.1369,-6.47164 -5.77097,-16.23745 -7.61719,-20.49218 -0.5707,-1.31519 -0.91711,-2.15011 -1.12109,-2.79688 -0.10199,-0.32339 -0.18368,-0.58972 -0.19141,-0.98437 -0.008,-0.39466 0.226,-1.15952 0.7832,-1.50391 0.58403,-0.36094 0.89395,-0.39281 1.51367,-0.58008 0.61973,-0.18727 1.38476,-0.39597 2.20313,-0.60351 1.63675,-0.41509 3.4606,-0.82473 4.72461,-1.02149 1.64505,-0.25607 3.68749,-0.36016 5.81055,-0.31445 z"
         id="path6703-5"
         style="fill:#616363;stroke:#75787a"
         inkscape:original="M 89.710938 165.38477 C 88.116357 165.84208 88.083518 165.93697 86.861328 173.57031 C 84.494628 188.3518 83.061514 201.80432 82.902344 210.72656 L 82.841797 214.11328 L 83.585938 214.78125 C 84.799668 215.8698 86.687609 216.05917 94.667969 215.89648 C 98.440669 215.81956 101.94283 215.65424 102.45117 215.52734 C 103.83691 215.1814 104.37096 214.45901 105.23828 211.76172 L 106.02148 209.32617 L 116.26172 217.85156 C 134.32517 232.88978 136.01046 234.15743 139.08203 235.01562 C 139.90238 235.2449 141.15434 235.33982 142.80273 235.29492 C 145.38615 235.22454 146.6606 234.82057 147.90625 233.68164 C 148.36953 233.25807 148.45963 233.25322 149.44141 233.59961 C 152.91596 234.8255 157.56958 233.78845 159.68555 231.31641 C 160.43304 230.44315 160.47458 230.42776 161.74219 230.55859 C 163.19474 230.70851 165.39317 230.2382 166.95117 229.44336 C 168.24995 228.78077 169.94073 227.19251 170.48633 226.12305 C 170.86499 225.38082 171.07937 225.23171 171.94727 225.10156 C 174.42108 224.73059 176.92003 222.87819 178.04492 220.58398 C 178.53191 219.59078 178.63167 219.01564 178.66797 216.99023 C 178.6917 215.66377 178.7705 214.48458 178.8418 214.36914 C 178.91314 214.25371 179.40644 213.85826 179.9375 213.49023 L 180.90234 212.82031 L 181.7793 213.31445 C 183.67801 214.38085 186.3283 214.66624 194.13086 214.64844 C 202.30681 214.62977 202.85221 214.53575 203.47266 213.05078 C 203.83073 212.19381 203.67745 210.09227 202.75391 203.19922 C 200.65425 187.52798 196.96295 174.87463 193.97656 173.11133 C 193.54583 172.85701 192.2623 172.60345 190.50977 172.42578 C 185.63043 171.9311 180.15487 172.68585 173.7207 174.74023 L 170.22266 175.85742 L 167.80664 175.06641 C 165.62915 174.35335 161.16568 172.58734 153.80078 169.52734 C 147.88512 167.06947 141.85891 167.14603 135.78711 169.75391 L 133.79492 170.60938 L 129.60547 170.34766 C 127.30185 170.20403 122.65 170.02357 119.26758 169.94727 C 113.3047 169.81282 113.01993 169.786 109.92383 169.01367 C 102.46114 167.15206 90.831307 165.06346 89.710938 165.38477 z M 92.978516 170.67969 C 93.257486 170.74425 95.551675 171.17113 98.078125 171.62891 C 102.23404 172.38196 106.4278 173.26614 108.80078 173.89062 C 109.91918 174.18494 109.92304 174.3157 108.96875 179.12109 C 107.64136 185.8052 104.29585 198.18242 101.11914 208.16602 L 100.33008 210.65039 L 98.208984 210.80273 C 97.042304 210.88654 94.234533 210.96667 91.970703 210.98047 L 87.855469 211.00586 L 88.019531 207.51562 C 88.352151 200.45318 89.56584 189.28608 91.125 178.95508 C 92.41859 170.38383 92.384526 170.54225 92.978516 170.67969 z M 143.2832 172.89062 C 146.31767 172.50953 148.88033 172.94254 152.5332 174.45312 C 159.38538 177.28672 163.95064 179.07489 166.37695 179.87891 L 169.01758 180.75586 L 170.44141 183.99414 C 172.072 187.7041 172.80532 189.53177 174.75195 194.73828 C 175.92553 197.87718 179.22852 207.35368 179.22852 207.58203 C 179.22852 207.62156 178.54832 208.1938 177.7168 208.85547 C 176.88527 209.51713 176.16574 210.05192 176.11914 210.04492 C 176.07253 210.03756 175.57942 209.40515 175.02148 208.63867 C 170.7676 202.79491 159.23265 191.84545 150.34375 185.21289 C 146.62692 182.43953 146.63419 182.4408 143.66602 183.42188 C 142.34589 183.8582 140.64257 184.28444 139.88086 184.36914 C 139.11914 184.45379 138.30144 184.62708 138.06445 184.75391 C 137.82747 184.88074 136.88583 185.97842 135.97266 187.19336 C 134.09033 189.69774 132.8677 190.88524 131.40234 191.63281 C 130.22997 192.23091 128.38077 192.33934 127.25977 191.875 C 125.39046 191.10071 125.63593 188.02033 127.93945 183.33398 C 128.98977 181.19717 129.44133 180.57339 131.19141 178.83984 C 134.59144 175.47189 138.65459 173.47192 143.2832 172.89062 z M 114.77344 174.93359 L 119.62305 174.99805 C 122.28996 175.03366 125.14063 175.12241 125.95898 175.19531 L 127.44727 175.32812 L 126.5918 176.27539 C 124.69728 178.37239 122.83402 181.74995 121.71289 185.12109 C 120.94497 187.43003 120.92171 191.45194 121.66797 193.06641 C 122.36611 194.57674 123.88483 195.98045 125.49414 196.60352 C 127.36615 197.32824 130.54731 197.34434 132.46289 196.63867 C 134.94472 195.7244 137.86841 193.2631 140 190.29492 C 140.58316 189.48286 140.90348 189.24414 141.41406 189.24414 C 141.77733 189.24414 142.90223 188.98148 143.91406 188.66016 L 145.75391 188.07617 L 146.64258 188.69141 C 147.13174 189.03039 148.8901 190.39561 150.54883 191.72461 C 160.59976 199.77758 171.73731 211.28489 173.45117 215.38672 C 174.35764 217.55621 173.21277 219.96673 171.26758 219.98633 C 170.40804 219.99501 169.79428 219.47262 159.62305 210.08008 C 155.88902 206.63191 153.0038 204.14588 152.625 204.05078 C 151.72907 203.82591 150.48823 204.28818 150.00391 205.02734 C 149.78038 205.36851 149.59766 206.07745 149.59766 206.60352 C 149.59766 207.4987 149.73322 207.68908 151.70703 209.57812 C 153.45715 211.25313 156.87098 214.40044 165.59375 222.375 L 166.51758 223.21875 L 165.75195 224.08984 C 164.87158 225.09253 162.925 225.80132 161.80664 225.52539 C 161.43642 225.43404 160.38917 224.74747 159.47852 224.00195 C 157.24679 222.17489 150.67184 216.32657 148.47852 214.2168 C 146.23094 212.05484 145.72143 211.71484 144.73633 211.71484 C 143.6487 211.71484 142.33008 213.00508 142.33008 214.06836 C 142.33008 215.0528 142.84944 216.01388 143.82617 216.83789 C 144.2641 217.20735 146.2075 218.95774 148.14648 220.72852 C 150.08545 222.49929 152.62995 224.7785 153.80078 225.79297 C 154.97163 226.80744 155.96376 227.72465 156.00586 227.83008 C 156.14172 228.17061 154.5937 228.94138 153.47266 229.0918 C 151.89749 229.30315 150.35835 228.75439 148.76562 227.41016 C 148.02315 226.78351 145.25953 224.1513 142.625 221.5625 L 137.83398 216.85547 L 136.83008 216.99023 C 134.9711 217.23952 134.00758 219.02788 134.85547 220.65625 C 135.03839 221.00754 137.20501 223.28417 139.66992 225.7168 C 142.69865 228.70586 144.04191 230.18348 143.8125 230.27148 C 143.09575 230.54652 140.97305 230.36509 139.74609 229.92383 C 138.26715 229.39193 137.77614 229.0235 129.20508 222.01758 C 118.77033 213.4883 107.9195 204.3557 107.8457 204.04297 C 107.80782 203.8824 108.37361 201.68419 109.10352 199.1582 C 111.65203 190.33879 114.36686 178.93482 114.70117 175.64453 L 114.77344 174.93359 z M 187.97852 177.4668 L 191.17188 177.53516 L 191.82031 178.71875 C 193.32367 181.45916 195.37385 189.1429 196.70898 197.04883 C 197.58114 202.21325 198.52353 209.29092 198.36133 209.45312 C 198.1341 209.6803 190.95027 209.78777 188.53516 209.59961 C 184.73634 209.30364 185.27136 209.8865 183.28125 203.85938 C 181.12736 197.33627 177.50828 187.60422 175.61719 183.24609 C 174.48644 180.64024 174.26305 179.92805 174.51953 179.76953 C 175.14619 179.38224 180.08721 178.12903 182.42188 177.76562 C 183.94286 177.52886 185.92554 177.4226 187.97852 177.4668 z "
         inkscape:radius="-1.4498963"
         sodipodi:type="inkscape:offset" />
      <path
         sodipodi:nodetypes="ccssccscsssssccc"
         id="path5047"
         d="m 367.7485,677.37748 -15.54773,-0.0942 -0.13569,-4.47246 c -0.20895,-6.88714 -1.33896,-11.84475 -4.62333,-20.28375 l -3.01453,-7.74565 -11.32146,-16.2394 c 0.3598,-0.3574 -4.23717,-5.24495 -10.62335,-11.29483 -6.1917,-5.86563 -11.17552,-10.74636 -11.07516,-10.84604 0.10035,-0.0997 4.2557,-2.67677 9.2341,-5.72685 4.9784,-3.05008 10.7471,-6.81403 12.81931,-8.36433 4.42999,-3.31423 5.14853,-3.05633 12.76336,4.581 12.21357,12.24966 24.06404,29.76505 29.71028,43.91277 3.0978,7.76213 6.53695,23.18328 7.05362,31.6285 l 0.30831,5.03935 -15.54773,-0.0942 z"
         style="fill:#faa633"
         inkscape:connector-curvature="0" />
      <path
         id="path5045"
         d="m 225.02615,676.8818 -15.35116,-0.0752 0.98619,-8.99772 c 1.92359,-17.55025 7.85357,-33.0984 19.22755,-50.41382 3.56999,-5.43485 7.89713,-10.35431 17.2109,-19.56675 13.94725,-13.79553 20.66572,-18.86083 43.52047,-32.81162 16.35049,-9.98052 25.22588,-16.58562 34.00694,-25.30807 l 6.04105,-6.00072 c 11.18565,-14.83855 0,0 11.18565,-14.83855 l 2.17653,-3.93147 c 1.1971,-2.16232 3.60312,-7.92286 5.34675,-12.80122 2.59609,-7.2634 3.16936,-11.06767 3.16544,-21.00599 -0.005,-12.82311 -2.18381,-22.17578 -7.5753,-32.51809 l -2.80561,-5.38193 -10.98509,-15.0357 -9.64636,-9.09393 c -5.3055,-5.00166 -9.56441,-9.17532 -9.46428,-9.27479 0.10016,-0.0995 4.25533,-2.67638 9.23373,-5.72647 4.97841,-3.05008 10.77123,-6.83174 12.87293,-8.40368 3.60029,-2.69279 3.99408,-2.73904 6.80882,-0.79972 4.2539,2.93091 17.60767,18.14424 23.24807,26.48543 17.20613,25.44496 23.03549,52.34671 17.22201,79.47747 -7.67946,35.83913 -33.30876,66.21567 -77.72458,92.12128 -22.88907,13.3501 -42.65229,31.27457 -51.97222,47.13677 -5.33156,9.07416 -9.9241,22.35041 -10.45137,30.21318 -0.22547,3.36276 -0.52606,6.2294 -0.66794,6.37033 -0.14188,0.14094 -7.16599,0.22238 -15.60912,0.18101 z"
         style="fill:#9e78b0"
         inkscape:connector-curvature="0"
         sodipodi:nodetypes="ccsssssccssssccssssssssssccc" />
      <path
         inkscape:connector-curvature="0"
         id="path5043"
         d="m 353.68476,284.88981 -0.42579,6.34766 c -0.5441,8.11363 -5.10148,21.3292 -10.49023,30.42382 -5.49392,9.27211 -19.37308,24.33799 -29.90039,32.45508 -4.30687,3.32083 -13.41377,9.39073 -20.23633,13.48828 -6.82254,4.09755 -16.52838,10.34572 -21.56836,13.88477 -60.74927,42.65781 -77.0265,103.62073 -41.93555,157.0625 6.11761,9.31682 19.7172,25.10042 24.41602,28.33789 2.95129,2.03342 3.00112,2.02221 8.92773,-2.21484 3.27735,-2.34304 8.77399,-5.89547 12.21485,-7.89453 3.44086,-1.99907 6.61551,-3.91171 7.05469,-4.25 0.50576,-0.38949 -4.02865,-5.51295 -12.36329,-13.97071 -15.13407,-15.35769 -19.25222,-21.52244 -24.2246,-36.26172 -2.21508,-6.56601 -3.27821,-7.08446 -3.5625,-11.84179 l 0.375,-18.91407 c 0.32109,-6.06348 0.98195,-5.57351 3.33203,-12.38867 4.17566,-12.1093 9.686,-20.89893 20.27929,-32.35156 10.82771,-11.70605 20.16912,-19.07359 36.9961,-29.17969 40.06034,-24.05981 62.65861,-47.16537 74.42968,-76.0957 3.14971,-7.74121 6.69241,-23.13851 7.26563,-31.58008 l 0.3418,-5.03711 -15.46289,-0.01 -15.46289,-0.01 z"
         style="fill:#1973ba;stroke:none" />
      <path
         inkscape:connector-curvature="0"
         id="path5047-7"
         d="m 337.30958,243.04215 8.59765,12.33204 3.01367,7.74414 c 3.28437,8.439 4.41605,13.39801 4.625,20.28515 l 0.13477,4.47266 15.54883,0.0937 15.54687,0.0937 -0.30859,-5.03906 c -0.51667,-8.44522 -3.95494,-23.86678 -7.05274,-31.62891 -1.0708,-2.6831 -2.36845,-5.48706 -3.8457,-8.35352 l -36.25976,0 z"
         style="fill:#1973ba" />
      <path
         inkscape:connector-curvature="0"
         id="path5043-5"
         d="m 220.48554,239.54215 c -11.53579,30.2211 -8.04903,62.65907 11.6875,92.7168 6.11761,9.31682 19.71719,25.10237 24.41601,28.33984 2.95129,2.03342 2.99916,2.02026 8.92578,-2.21679 3.27734,-2.34304 8.77399,-5.89547 12.21485,-7.89453 3.44086,-1.99907 6.61551,-3.91171 7.05468,-4.25 0.50576,-0.38949 -4.02669,-5.51295 -12.36132,-13.97071 -15.13407,-15.35769 -19.25223,-21.52048 -24.22461,-36.25976 -2.21508,-6.56601 -3.28017,-7.08447 -3.56446,-11.8418 l 0.37696,-18.91601 c 0.32109,-6.06348 0.98195,-5.57352 3.33203,-12.38868 1.67034,-4.84395 3.56115,-9.15378 5.89844,-13.31836 l -33.75586,0 z"
         style="fill:#8cc53d" />
      <path
         style="font-style:normal;font-variant:normal;font-weight:bold;font-stretch:condensed;font-size:medium;line-height:80.00000119%;font-family:'DIN Condensed';-inkscape-font-specification:'DIN Condensed, Bold Condensed';text-align:start;letter-spacing:0px;word-spacing:0px;writing-mode:lr-tb;text-anchor:start;fill:#616363;fill-opacity:1;stroke:none;stroke-width:1px;stroke-linecap:butt;stroke-linejoin:miter;stroke-opacity:1"
         inkscape:connector-curvature="0"
         id="path4243"
         d="m 426.4547,325.40768 q 0,2.87378 -1.197,5.48631 -1.10492,2.61253 -3.13062,4.61546 -2.0257,1.91585 -4.78802,3.13503 -2.67024,1.13209 -5.80086,1.13209 -2.67024,0 -5.43256,-0.69667 -2.7623,-0.69667 -4.97216,-2.35128 -2.20986,-1.74167 -3.68309,-4.52837 -1.38116,-2.7867 -1.38116,-7.05382 l 0,-34.13701 q 0,-3.04794 1.10493,-5.66047 1.10493,-2.61252 3.13062,-4.52838 2.0257,-1.91585 4.78802,-2.96086 2.85439,-1.13209 6.26125,-1.13209 3.22269,0 5.98501,1.13209 2.76232,1.04501 4.78802,3.04795 2.0257,1.91585 3.13062,4.70255 1.197,2.69961 1.197,5.92172 l 0,3.48337 -9.39187,0 0,-2.96087 q 0,-2.61252 -1.56531,-4.52837 -1.56532,-1.91585 -4.23555,-1.91585 -3.49893,0 -4.69594,2.09002 -1.10492,2.00293 -1.10492,5.13797 l 0,31.69864 q 0,2.69961 1.197,4.52838 1.28908,1.82877 4.51179,1.82877 0.92077,0 1.93361,-0.26126 1.10493,-0.34833 1.93362,-1.04501 0.92077,-0.69667 1.47324,-1.91585 0.55246,-1.21918 0.55246,-3.04794 l 0,-3.04795 9.39187,0 0,3.8317 z" />
      <path
         style="font-style:normal;font-variant:normal;font-weight:bold;font-stretch:condensed;font-size:medium;line-height:80.00000119%;font-family:'DIN Condensed';-inkscape-font-specification:'DIN Condensed, Bold Condensed';text-align:start;letter-spacing:0px;word-spacing:0px;writing-mode:lr-tb;text-anchor:start;fill:#616363;fill-opacity:1;stroke:none;stroke-width:1px;stroke-linecap:butt;stroke-linejoin:miter;stroke-opacity:1"
         inkscape:connector-curvature="0"
         id="path4245"
         d="m 451.24649,334.72569 -0.18417,0 q -1.84153,2.43835 -3.77516,3.74462 -1.84154,1.30626 -5.24839,1.30626 -1.6574,0 -3.40686,-0.5225 -1.74946,-0.43542 -3.31478,-1.6546 -1.47324,-1.30626 -2.48608,-3.57045 -0.92077,-2.35128 -0.92077,-6.00881 0,-3.74462 0.64454,-6.53132 0.64453,-2.87377 2.30193,-4.70254 1.74946,-1.91585 4.60385,-2.78669 2.85439,-0.95794 7.2741,-0.95794 1.01285,0 2.0257,0.087 1.01285,0.087 2.48609,0.17417 l 0,-4.61546 q 0,-2.2642 -1.01286,-3.74463 -1.01284,-1.48043 -3.68309,-1.48043 -1.84153,0 -3.40685,1.1321 -1.47324,1.1321 -1.93362,3.3092 l -9.11564,0 q 0.46039,-6.00881 4.23555,-9.57926 1.84154,-1.74168 4.4197,-2.69961 2.57817,-1.04501 5.80086,-1.04501 2.94647,0 5.52464,0.87084 2.57815,0.87084 4.4197,2.61253 1.93362,1.74168 3.03855,4.3542 1.10493,2.61253 1.10493,6.0959 l 0,30.74072 -9.39187,0 0,-4.52838 z m 0,-14.45598 q -1.56532,-0.26125 -2.57817,-0.26125 -3.03854,0 -5.2484,1.39335 -2.11777,1.30627 -2.11777,4.87672 0,2.52544 1.28908,4.09295 1.28907,1.56752 3.59101,1.56752 2.394,0 3.68309,-1.48044 1.38116,-1.48043 1.38116,-4.18003 l 0,-6.00882 z" />
      <path
         style="font-style:normal;font-variant:normal;font-weight:bold;font-stretch:condensed;font-size:medium;line-height:80.00000119%;font-family:'DIN Condensed';-inkscape-font-specification:'DIN Condensed, Bold Condensed';text-align:start;letter-spacing:0px;word-spacing:0px;writing-mode:lr-tb;text-anchor:start;fill:#616363;fill-opacity:1;stroke:none;stroke-width:1px;stroke-linecap:butt;stroke-linejoin:miter;stroke-opacity:1"
         inkscape:connector-curvature="0"
         id="path4247"
         d="m 467.64485,295.10238 9.39187,0 0,4.26713 0.18416,0 q 1.47324,-2.09002 3.49893,-3.39628 2.11777,-1.39336 5.34048,-1.39336 1.74946,0 3.49893,0.60959 1.74947,0.52251 3.13062,1.82878 1.38116,1.30626 2.20986,3.39628 0.82869,2.00293 0.82869,4.96379 l 0,33.87576 -9.39187,0 0,-30.56655 q 0,-2.43836 -1.197,-3.83171 -1.19701,-1.39335 -3.40686,-1.39335 -2.67024,0 -3.68308,1.56752 -1.01286,1.56752 -1.01286,4.52838 l 0,29.69571 -9.39187,0 0,-44.15169 z" />
      <path
         style="font-style:normal;font-variant:normal;font-weight:bold;font-stretch:condensed;font-size:medium;line-height:80.00000119%;font-family:'DIN Condensed';-inkscape-font-specification:'DIN Condensed, Bold Condensed';text-align:start;letter-spacing:0px;word-spacing:0px;writing-mode:lr-tb;text-anchor:start;fill:#616363;fill-opacity:1;stroke:none;stroke-width:1px;stroke-linecap:butt;stroke-linejoin:miter;stroke-opacity:1"
         inkscape:connector-curvature="0"
         id="path4249"
         d="m 513.377,326.53978 q 0,2.09002 1.197,3.22211 1.28908,1.1321 3.40685,1.1321 2.67024,0 3.49894,-1.48044 0.92078,-1.48043 1.10493,-2.96086 l 9.39187,0 q 0,2.7867 -1.01286,5.22505 -0.92077,2.43836 -2.7623,4.18005 -1.84155,1.82876 -4.41972,2.87377 -2.57815,1.04501 -5.80086,1.04501 -4.32762,0 -7.45824,-1.74168 -3.13062,-1.74168 -4.78802,-4.61546 -1.01285,-1.74169 -1.38116,-4.00588 -0.3683,-2.26418 -0.3683,-4.9638 l 0,-14.54305 q 0,-2.69961 0.3683,-4.96381 0.36831,-2.26418 1.38116,-4.00587 1.6574,-2.87377 4.78802,-4.61546 3.13062,-1.74169 7.45824,-1.74169 3.22271,0 5.80086,1.04501 2.67024,1.04502 4.41972,2.96087 1.84153,1.82877 2.7623,4.4413 1.01286,2.61252 1.01286,5.66047 l -9.39187,0 q 0,-2.69961 -1.28909,-3.91879 -1.197,-1.30627 -3.31478,-1.30627 -2.11777,0 -3.40685,1.30627 -1.197,1.21918 -1.197,3.74462 l 0,18.02643 z" />
      <path
         style="font-style:normal;font-variant:normal;font-weight:bold;font-stretch:condensed;font-size:medium;line-height:80.00000119%;font-family:'DIN Condensed';-inkscape-font-specification:'DIN Condensed, Bold Condensed';text-align:start;letter-spacing:0px;word-spacing:0px;writing-mode:lr-tb;text-anchor:start;fill:#616363;fill-opacity:1;stroke:none;stroke-width:1px;stroke-linecap:butt;stroke-linejoin:miter;stroke-opacity:1"
         inkscape:connector-curvature="0"
         id="path4251"
         d="m 546.1651,320.53097 0,6.00881 q 0,2.09002 1.19701,3.22211 1.28908,1.1321 3.40685,1.1321 2.67023,0 3.49894,-1.48044 0.92077,-1.48043 1.10492,-2.96086 l 9.39187,0 q 0,2.7867 -1.01285,5.22505 -0.92076,2.43836 -2.76231,4.18005 -1.84155,1.82876 -4.41971,2.87377 -2.57816,1.04501 -5.80086,1.04501 -4.32762,0 -7.45825,-1.74168 -3.13062,-1.74168 -4.78801,-4.61546 -1.01285,-1.74169 -1.38116,-4.00588 -0.36831,-2.26418 -0.36831,-4.9638 l 0,-14.54305 q 0,-2.69961 0.36831,-4.96381 0.36831,-2.26418 1.38116,-4.00587 1.65739,-2.87377 4.78801,-4.61546 3.13063,-1.74169 7.45825,-1.74169 3.2227,0 5.80086,1.04501 2.67025,1.04502 4.41971,2.96087 1.84155,1.82877 2.76231,4.35421 1.01285,2.52544 1.01285,5.39922 l 0,12.19179 -18.59959,0 z m 0,-6.96674 9.20772,0 0,-5.05088 q 0,-2.52544 -1.28908,-3.74462 -1.197,-1.30627 -3.31478,-1.30627 -2.11777,0 -3.40685,1.30627 -1.19701,1.21918 -1.19701,3.74462 l 0,5.05088 z" />
      <path
         style="font-style:normal;font-variant:normal;font-weight:bold;font-stretch:condensed;font-size:medium;line-height:80.00000119%;font-family:'DIN Condensed';-inkscape-font-specification:'DIN Condensed, Bold Condensed';text-align:start;letter-spacing:0px;word-spacing:0px;writing-mode:lr-tb;text-anchor:start;fill:#616363;fill-opacity:1;stroke:none;stroke-width:1px;stroke-linecap:butt;stroke-linejoin:miter;stroke-opacity:1"
         inkscape:connector-curvature="0"
         id="path4253"
         d="m 571.77119,295.10238 9.39187,0 0,4.70255 q 2.85439,-2.43836 5.61671,-3.8317 2.76232,-1.39336 6.81371,-1.39336 l 0,9.4051 q -1.38116,-0.52251 -2.8544,-0.52251 -1.47323,0 -3.22269,0.52251 -1.6574,0.43542 -3.13063,1.56752 -1.38116,1.13209 -2.30193,2.96086 -0.92077,1.82877 -0.92077,4.52837 l 0,26.21235 -9.39187,0 0,-44.15169 z" />
      <path
         style="font-style:normal;font-variant:normal;font-weight:bold;font-stretch:condensed;font-size:medium;line-height:80.00000119%;font-family:'DIN Condensed';-inkscape-font-specification:'DIN Condensed, Bold Condensed';text-align:start;letter-spacing:0px;word-spacing:0px;writing-mode:lr-tb;text-anchor:start;fill:#616363;fill-opacity:1;stroke:none;stroke-width:1px;stroke-linecap:butt;stroke-linejoin:miter;stroke-opacity:1"
         inkscape:connector-curvature="0"
         id="path4255"
         d="m 396.06923,361.54763 q 0,-3.74462 1.38116,-6.6184 1.38116,-2.87378 3.59101,-4.70255 2.30194,-1.91585 5.06424,-2.87377 2.8544,-0.95794 5.70879,-0.95794 2.85439,0 5.61671,0.95794 2.85439,0.95792 5.06424,2.87377 2.30194,1.82877 3.68309,4.70255 1.38116,2.87378 1.38116,6.6184 l 0,3.13503 -9.39188,0 0,-3.13503 q 0,-3.22212 -1.93361,-4.70255 -1.84155,-1.56751 -4.41971,-1.56751 -2.57816,0 -4.51178,1.56751 -1.84154,1.48043 -1.84154,4.70255 l 0,32.74365 q 0,3.22212 1.84154,4.78964 1.93362,1.48043 4.51178,1.48043 2.57816,0 4.41971,-1.48043 1.93361,-1.56752 1.93361,-4.78964 l 0,-11.66927 -7.45824,0 0,-7.83758 16.85012,0 0,19.50685 q 0,3.83171 -1.38116,6.70549 -1.38115,2.78669 -3.68309,4.70255 -2.20985,1.82876 -5.06424,2.78668 -2.76232,0.95793 -5.61671,0.95793 -2.85439,0 -5.70879,-0.95793 -2.7623,-0.95792 -5.06424,-2.78668 -2.20985,-1.91586 -3.59101,-4.70255 -1.38116,-2.87378 -1.38116,-6.70549 l 0,-32.74365 z" />
      <path
         style="font-style:normal;font-variant:normal;font-weight:bold;font-stretch:condensed;font-size:medium;line-height:80.00000119%;font-family:'DIN Condensed';-inkscape-font-specification:'DIN Condensed, Bold Condensed';text-align:start;letter-spacing:0px;word-spacing:0px;writing-mode:lr-tb;text-anchor:start;fill:#616363;fill-opacity:1;stroke:none;stroke-width:1px;stroke-linecap:butt;stroke-linejoin:miter;stroke-opacity:1"
         inkscape:connector-curvature="0"
         id="path4257"
         d="m 443.83715,390.19833 0,6.0088 q 0,2.09003 1.197,3.22212 1.28908,1.1321 3.40685,1.1321 2.67024,0 3.49894,-1.48043 0.92077,-1.48043 1.10493,-2.96087 l 9.39187,0 q 0,2.7867 -1.01286,5.22505 -0.92076,2.43836 -2.76231,4.18004 -1.84154,1.82878 -4.4197,2.87378 -2.57816,1.04501 -5.80087,1.04501 -4.32762,0 -7.45824,-1.74168 -3.13063,-1.74169 -4.78802,-4.61546 -1.01284,-1.74169 -1.38116,-4.00587 -0.3683,-2.26419 -0.3683,-4.96381 l 0,-14.54305 q 0,-2.69961 0.3683,-4.96381 0.36832,-2.26418 1.38116,-4.00587 1.65739,-2.87377 4.78802,-4.61546 3.13062,-1.74168 7.45824,-1.74168 3.22271,0 5.80087,1.04501 2.67024,1.045 4.4197,2.96086 1.84155,1.82877 2.76231,4.35421 1.01286,2.52544 1.01286,5.39922 l 0,12.19179 -18.59959,0 z m 0,-6.96673 9.20772,0 0,-5.0509 q 0,-2.52544 -1.28908,-3.74461 -1.19701,-1.30627 -3.31479,-1.30627 -2.11777,0 -3.40685,1.30627 -1.197,1.21917 -1.197,3.74461 l 0,5.0509 z" />
      <path
         style="font-style:normal;font-variant:normal;font-weight:bold;font-stretch:condensed;font-size:medium;line-height:80.00000119%;font-family:'DIN Condensed';-inkscape-font-specification:'DIN Condensed, Bold Condensed';text-align:start;letter-spacing:0px;word-spacing:0px;writing-mode:lr-tb;text-anchor:start;fill:#616363;fill-opacity:1;stroke:none;stroke-width:1px;stroke-linecap:butt;stroke-linejoin:miter;stroke-opacity:1"
         inkscape:connector-curvature="0"
         id="path4259"
         d="m 469.44323,364.76975 9.39187,0 0,4.26712 0.18415,0 q 1.47325,-2.09002 3.49894,-3.39628 2.11777,-1.39335 5.34048,-1.39335 1.74946,0 3.49893,0.60958 1.74946,0.52251 3.13062,1.82878 1.38116,1.30626 2.20985,3.39628 0.8287,2.00293 0.8287,4.9638 l 0,33.87574 -9.39187,0 0,-30.56654 q 0,-2.43836 -1.19701,-3.8317 -1.197,-1.39336 -3.40685,-1.39336 -2.67024,0 -3.68308,1.56752 -1.01286,1.56752 -1.01286,4.52838 l 0,29.6957 -9.39187,0 0,-44.15167 z" />
      <path
         style="font-style:normal;font-variant:normal;font-weight:bold;font-stretch:condensed;font-size:medium;line-height:80.00000119%;font-family:'DIN Condensed';-inkscape-font-specification:'DIN Condensed, Bold Condensed';text-align:start;letter-spacing:0px;word-spacing:0px;writing-mode:lr-tb;text-anchor:start;fill:#616363;fill-opacity:1;stroke:none;stroke-width:1px;stroke-linecap:butt;stroke-linejoin:miter;stroke-opacity:1"
         inkscape:connector-curvature="0"
         id="path4261"
         d="m 513.79422,390.19833 0,6.0088 q 0,2.09003 1.19701,3.22212 1.28907,1.1321 3.40684,1.1321 2.67024,0 3.49894,-1.48043 0.92077,-1.48043 1.10493,-2.96087 l 9.39187,0 q 0,2.7867 -1.01286,5.22505 -0.92076,2.43836 -2.7623,4.18004 -1.84155,1.82878 -4.41972,2.87378 -2.57815,1.04501 -5.80086,1.04501 -4.32762,0 -7.45824,-1.74168 -3.13062,-1.74169 -4.78802,-4.61546 -1.01284,-1.74169 -1.38116,-4.00587 -0.3683,-2.26419 -0.3683,-4.96381 l 0,-14.54305 q 0,-2.69961 0.3683,-4.96381 0.36832,-2.26418 1.38116,-4.00587 1.6574,-2.87377 4.78802,-4.61546 3.13062,-1.74168 7.45824,-1.74168 3.22271,0 5.80086,1.04501 2.67025,1.045 4.41972,2.96086 1.84154,1.82877 2.7623,4.35421 1.01286,2.52544 1.01286,5.39922 l 0,12.19179 -18.59959,0 z m 0,-6.96673 9.20772,0 0,-5.0509 q 0,-2.52544 -1.28908,-3.74461 -1.19701,-1.30627 -3.31479,-1.30627 -2.11777,0 -3.40684,1.30627 -1.19701,1.21917 -1.19701,3.74461 l 0,5.0509 z" />
      <path
         style="font-style:normal;font-variant:normal;font-weight:bold;font-stretch:condensed;font-size:medium;line-height:80.00000119%;font-family:'DIN Condensed';-inkscape-font-specification:'DIN Condensed, Bold Condensed';text-align:start;letter-spacing:0px;word-spacing:0px;writing-mode:lr-tb;text-anchor:start;fill:#616363;fill-opacity:1;stroke:none;stroke-width:1px;stroke-linecap:butt;stroke-linejoin:miter;stroke-opacity:1"
         inkscape:connector-curvature="0"
         id="path4263"
         d="m 402.79087,424.94492 -10.8651,0 0,-8.36008 31.12208,0 0,8.36008 -10.86511,0 0,53.64387 -9.39187,0 0,-53.64387 z" />
      <path
         style="font-style:normal;font-variant:normal;font-weight:bold;font-stretch:condensed;font-size:medium;line-height:80.00000119%;font-family:'DIN Condensed';-inkscape-font-specification:'DIN Condensed, Bold Condensed';text-align:start;letter-spacing:0px;word-spacing:0px;writing-mode:lr-tb;text-anchor:start;fill:#616363;fill-opacity:1;stroke:none;stroke-width:1px;stroke-linecap:butt;stroke-linejoin:miter;stroke-opacity:1"
         inkscape:connector-curvature="0"
         id="path4265"
         d="m 421.06675,434.43711 9.39187,0 0,4.70254 q 2.85439,-2.43836 5.61671,-3.8317 2.76232,-1.39335 6.81371,-1.39335 l 0,9.40509 q -1.38116,-0.52251 -2.8544,-0.52251 -1.47323,0 -3.22269,0.52251 -1.6574,0.43543 -3.13063,1.56751 -1.38115,1.1321 -2.30193,2.96087 -0.92077,1.82877 -0.92077,4.52838 l 0,26.21234 -9.39187,0 0,-44.15168 z" />
      <path
         style="font-style:normal;font-variant:normal;font-weight:bold;font-stretch:condensed;font-size:medium;line-height:80.00000119%;font-family:'DIN Condensed';-inkscape-font-specification:'DIN Condensed, Bold Condensed';text-align:start;letter-spacing:0px;word-spacing:0px;writing-mode:lr-tb;text-anchor:start;fill:#616363;fill-opacity:1;stroke:none;stroke-width:1px;stroke-linecap:butt;stroke-linejoin:miter;stroke-opacity:1"
         inkscape:connector-curvature="0"
         id="path4267"
         d="m 474.68732,478.58879 -9.39188,0 0,-4.26713 -0.18415,0 q -1.47324,2.09003 -3.59101,3.48337 -2.0257,1.30627 -5.2484,1.30627 -1.74947,0 -3.49893,-0.52251 -1.74946,-0.60959 -3.13062,-1.91586 -1.38116,-1.30625 -2.20985,-3.30919 -0.82871,-2.09002 -0.82871,-5.05088 l 0,-33.87575 9.39188,0 0,30.56654 q 0,2.43836 1.197,3.83171 1.19701,1.39335 3.40686,1.39335 2.67024,0 3.68308,-1.56752 1.01285,-1.56751 1.01285,-4.52837 l 0,-29.69571 9.39188,0 0,44.15168 z" />
      <path
         style="font-style:normal;font-variant:normal;font-weight:bold;font-stretch:condensed;font-size:medium;line-height:80.00000119%;font-family:'DIN Condensed';-inkscape-font-specification:'DIN Condensed, Bold Condensed';text-align:start;letter-spacing:0px;word-spacing:0px;writing-mode:lr-tb;text-anchor:start;fill:#616363;fill-opacity:1;stroke:none;stroke-width:1px;stroke-linecap:butt;stroke-linejoin:miter;stroke-opacity:1"
         inkscape:connector-curvature="0"
         id="path4269"
         d="m 499.42586,446.80306 q -0.092,-2.26419 -1.56531,-3.39629 -1.38116,-1.13209 -3.2227,-1.13209 -2.20985,0 -3.40685,1.39335 -1.19701,1.30626 -1.19701,3.04795 0,1.21917 0.64454,2.43835 0.64454,1.1321 3.31478,2.09002 l 5.52463,2.09002 q 5.24839,1.91585 7.18202,5.22506 2.0257,3.30919 2.0257,7.22799 0,2.78669 -1.10493,5.22504 -1.01285,2.35128 -2.8544,4.18004 -1.84153,1.82878 -4.4197,2.87379 -2.57815,1.04501 -5.61671,1.04501 -2.7623,0 -5.24839,-0.87085 -2.48608,-0.87084 -4.41971,-2.52544 -1.84154,-1.6546 -3.03854,-4.09296 -1.19701,-2.52544 -1.28908,-5.83463 l 8.8394,0 q 0.27624,1.82876 1.28908,3.39628 1.10494,1.56751 3.77517,1.56751 2.0257,0 3.59101,-1.21918 1.65739,-1.30626 1.65739,-3.57045 0,-1.82876 -1.01285,-3.13503 -1.01285,-1.30626 -3.68309,-2.26419 l -4.51178,-1.56751 q -4.4197,-1.56752 -6.99786,-4.61546 -2.48608,-3.13504 -2.48608,-7.57633 0,-2.7867 1.10492,-5.13796 1.10493,-2.43837 2.94647,-4.09296 1.93362,-1.74169 4.4197,-2.69961 2.48609,-0.95793 5.34048,-0.95793 2.85439,0 5.2484,1.04501 2.48608,0.95793 4.23555,2.6996 1.74947,1.65461 2.76231,4.09296 1.01285,2.35128 1.01285,5.05089 l -8.83941,0 z" />
      <path
         style="font-style:normal;font-variant:normal;font-weight:bold;font-stretch:condensed;font-size:medium;line-height:80.00000119%;font-family:'DIN Condensed';-inkscape-font-specification:'DIN Condensed, Bold Condensed';text-align:start;letter-spacing:0px;word-spacing:0px;writing-mode:lr-tb;text-anchor:start;fill:#616363;fill-opacity:1;stroke:none;stroke-width:1px;stroke-linecap:butt;stroke-linejoin:miter;stroke-opacity:1"
         inkscape:connector-curvature="0"
         id="path4271"
         d="m 514.76247,421.02614 9.39187,0 0,13.41097 5.80086,0 0,6.96673 -5.80086,0 0,24.47065 q 0,1.56752 0.27623,2.43837 0.36832,0.87084 1.01286,1.30626 0.73661,0.43542 1.84153,0.5225 1.10493,0.087 2.67024,0.087 l 0,8.36008 -3.86723,0 q -3.22271,0 -5.43256,-0.95792 -2.11778,-0.95794 -3.40686,-2.43837 -1.28908,-1.48043 -1.93362,-3.30919 -0.55246,-1.91585 -0.55246,-3.65754 l 0,-26.82193 -4.69594,0 0,-6.96673 4.69594,0 0,-13.41097 z" />
    </g>
  </g>
</svg>
