<svg width="490" height="184" xmlns="http://www.w3.org/2000/svg">

 <metadata id="metadata5132">image/svg+xml</metadata>
 <g>
  <title>background</title>
  <rect fill="none" id="canvas_background" height="186" width="492" y="-1" x="-1"/>
 </g>
 <g>
  <title>Layer 1</title>
  <g transform="rotate(-90 244.00000000000003,98.49999999999999) " id="svg_1">
   <path fill="#616363" stroke="#75787a" id="path6703-5-7-5" d="m208.185815,-144.283933c-0.43306,-0.0463 -0.552005,-0.027488 -0.513651,-0.038038c0.038362,-0.01057 0.004209,-0.042225 -0.281153,0.273076c-0.570756,0.630622 -1.726537,2.412044 -3.90126,5.895069c-8.398956,13.451673 -15.324977,25.995073 -19.084209,34.521744l-1.165058,2.641984l0.159432,0.322026l0.000819,-0.001954c0.228004,0.459032 0.489965,0.783221 1.91011,1.519944c1.420145,0.736723 3.865547,1.729392 7.879669,3.239618c1.892104,0.711894 3.727333,1.376334 5.149138,1.868784c0.710919,0.246214 1.319276,0.4484 1.770133,0.590939c0.450863,0.142496 0.883146,0.232118 0.683731,0.203998c0.557469,0.078752 0.606773,0.072722 0.961545,-0.137284c0.354762,-0.210009 0.993921,-0.793409 1.946433,-1.897895l1.781843,-2.066076a1.451684,1.416454 0 0 1 2.586458,0.266489l6.759301,12.421162c5.960577,10.953129 9.237429,16.911743 11.319741,20.320445c2.082302,3.408699 2.810026,4.120692 4.072467,5.078398c0.489377,0.371323 1.609775,0.949957 3.201928,1.536799c2.475476,0.912429 3.287502,0.956152 4.674457,0.458684c0.363397,-0.130326 1.074837,-0.335971 1.765926,-0.101221c0.691095,0.234764 0.95534,0.55203 1.388796,0.928692c2.440913,2.121119 7.118395,2.804519 9.431683,1.645343c0.561764,-0.281497 1.088829,-0.600204 1.915301,-0.571696c0.826472,0.028507 1.294772,0.345719 1.909575,0.66664c0.95493,0.498496 3.262809,0.942712 4.802604,0.817211c1.109736,-0.090443 3.53999,-1.073277 4.0066,-1.465125c0.400171,-0.336038 0.869969,-0.694213 1.529831,-0.839187c0.659872,-0.144969 1.218235,-0.027771 1.746267,0.098073c2.035219,0.485041 4.911333,-0.221301 6.540486,-1.633924c0.778801,-0.675281 0.850253,-0.798335 1.698089,-2.720945c0.292522,-0.663515 0.582797,-1.282379 0.824495,-1.764506c0.120851,-0.241068 0.226594,-0.44667 0.327906,-0.62415c0.050677,-0.088789 0.098726,-0.167132 0.16177,-0.260608c0.063145,-0.093436 0.005052,-0.158917 0.45032,-0.475044a1.451684,1.416454 0 0 1 0.002002,0.000799c0.359509,-0.255133 0.424988,-0.231373 0.56291,-0.280857c0.13793,-0.049504 0.277551,-0.092619 0.431898,-0.137153c0.308684,-0.089072 0.668912,-0.178788 1.044925,-0.259909l1.240375,-0.268736a1.451684,1.416454 0 0 1 1.568471,0.54379l0.675513,0.83323c1.150985,1.415655 3.396925,2.686179 11.179439,5.773285c4.090805,1.623067 6.318319,2.4528 7.365521,2.680217c0.523602,0.11372 0.66784,0.070521 0.661282,0.072476c-0.006644,0.001909 0.025966,0.005806 0.27974,-0.24245c-0.023548,0.022986 0.351965,-0.511098 0.832243,-1.946295c0.480248,-1.435209 1.129059,-3.727402 2.076274,-7.269653c2.142432,-8.012019 3.581449,-15.451593 4.198152,-21.185343c0.308356,-2.866873 0.409269,-5.311669 0.30466,-7.143973c-0.104619,-1.832307 -0.53832,-3.059009 -0.694316,-3.259636c0.110782,0.142535 -0.216643,-0.192214 -0.703274,-0.505763c-0.486629,-0.313525 -1.167411,-0.702779 -1.976105,-1.123101c-4.437004,-2.306144 -10.005064,-3.722414 -17.142078,-4.276163l-3.959687,-0.306932a1.451684,1.416454 0 0 1 -0.891953,-0.360691l-2.094697,-1.738429c-1.988377,-1.650385 -5.715693,-5.147213 -11.842977,-11.087614c-4.639574,-4.498082 -10.211587,-6.649815 -16.993516,-6.535515l-2.344903,0.039335a1.451684,1.416454 0 0 1 -0.710066,-0.152098l-4.086993,-1.930274c-2.202787,-1.04005 -6.79607,-3.081375 -10.12967,-4.498842c-5.917846,-2.516218 -6.478465,-2.81596 -9.273003,-4.816092c-3.311053,-2.369814 -7.668919,-5.231086 -11.332959,-7.502866c-1.83202,-1.13589 -3.493737,-2.126531 -4.75139,-2.828107c-0.628838,-0.350747 -1.159418,-0.630901 -1.538031,-0.812324c-0.378615,-0.18139 -0.793711,-0.237304 -0.369178,-0.191991l-0.000134,0.000209zm1.702749,3.435081c0.33311,0.137562 0.435941,0.245105 0.474863,0.272049c-0.024773,-0.016733 0.667602,0.429653 1.519528,0.9653c0.851926,0.535647 1.965166,1.232317 3.13417,1.959669c3.877652,2.412696 7.718049,4.951153 9.910117,6.562804c0.27241,0.200339 0.682494,0.441187 0.993341,1.071501c0.310851,0.630304 0.218392,1.401911 0.016525,1.931029c-0.403714,1.058243 -1.157312,2.082379 -2.62102,4.241241c-4.14082,6.107398 -12.555818,16.845997 -19.862208,25.370761l0.002002,0.000799l-1.807709,2.111423a1.451684,1.416454 0 0 1 -1.692814,0.471199l-2.185907,-0.699024c-1.305345,-0.417407 -4.11457,-1.451607 -6.41362,-2.353614l-4.130311,-1.620137a1.451684,1.416454 0 0 1 -0.838971,-2.065674l1.594065,-3.343811c3.269078,-6.855784 9.068572,-17.288879 14.885653,-26.79646c2.402878,-3.927315 3.551257,-5.824467 4.282469,-6.847619c0.365598,-0.511585 0.499951,-0.899084 1.338864,-1.238408c0.419457,-0.169662 1.06796,-0.130844 1.400964,0.006972zm49.433663,22.309903c3.441246,0.905755 6.169721,2.574451 9.316746,5.615361c5.689895,5.49801 9.535651,9.071093 11.554135,10.758462l2.284366,1.912164a1.451684,1.416454 0 0 1 0.547227,1.122796l0.09884,3.73241c0.113035,4.291926 0.096429,6.431797 -0.087912,12.30442c-0.056573,1.801864 -0.228603,5.324605 -0.398376,8.445195c-0.084894,1.560297 -0.167121,3.015773 -0.236464,4.101919c-0.034672,0.543073 -0.065975,0.993225 -0.091946,1.324201c-0.012955,0.1655 -0.024546,0.299876 -0.036301,0.413158c-0.005862,0.056618 -0.011455,0.1073 -0.020158,0.167904c-0.008707,0.060614 0.069023,-0.017715 -0.112867,0.416001c-0.000127,0.000303 -0.161805,0.293574 -0.162056,0.293896c-0.000236,0.000339 -0.100758,0.126828 -0.142282,0.170383c-0.082948,0.087148 -0.143574,0.135004 -0.193241,0.172308c-0.099214,0.074655 -0.155305,0.10473 -0.200356,0.129382c-0.09011,0.049324 -0.134551,0.065553 -0.176433,0.083236c-0.083669,0.03536 -0.143467,0.057774 -0.212534,0.082199c-0.138125,0.048856 -0.297733,0.100778 -0.49251,0.161956c-0.389545,0.122361 -0.904897,0.275938 -1.468111,0.436178c-0.565721,0.16095 -1.08773,0.300078 -1.489798,0.4008c-0.201027,0.050358 -0.368902,0.092034 -0.517309,0.1231c-0.074188,0.015539 -0.138681,0.029475 -0.232605,0.042996c-0.047019,0.006772 -0.096614,0.014112 -0.199436,0.018332c-0.051401,0.002171 -0.115167,0.005678 -0.230662,-0.005197c-0.057767,-0.005502 -0.13035,-0.014525 -0.232345,-0.039283c-0.051022,-0.012389 -0.179189,-0.055921 -0.179639,-0.056101c-0.000455,-0.00017 -0.245484,-0.115805 -0.245845,-0.115948a1.451684,1.416454 0 0 1 -0.010894,-0.00663c-0.000686,-0.000399 -0.2528,-0.182246 -0.319686,-0.250143c-0.066904,-0.067881 -0.108821,-0.1194 -0.141508,-0.163356c-0.065395,-0.08792 -0.095484,-0.143953 -0.119704,-0.188121c-0.048457,-0.088456 -0.065983,-0.133201 -0.083715,-0.175975c-0.035465,-0.085435 -0.055778,-0.145411 -0.077933,-0.211528c-0.04435,-0.13225 -0.088663,-0.280279 -0.1395,-0.456618c-0.101664,-0.352674 -0.224561,-0.809529 -0.350338,-1.309237c-1.765311,-7.013763 -8.839763,-22.44016 -14.930422,-32.324176c-1.29264,-2.097725 -1.95709,-3.022549 -2.286718,-3.267321c-0.329641,-0.244743 -0.741992,-0.298535 -2.429125,-0.413037c-1.59776,-0.108058 -3.393062,-0.334983 -4.49916,-0.642604c-0.344887,-0.095964 -0.728255,-0.181633 -1.029151,-0.234955c-0.3009,-0.053312 -0.662749,-0.033501 -0.356513,-0.064341c0.434067,-0.043778 0.204147,-0.043194 0.058303,0.018717c-0.145851,0.06201 -0.368064,0.166369 -0.62896,0.296806c-0.521784,0.260853 -1.202067,0.627282 -1.880493,1.022141c-2.986042,1.737988 -4.97542,2.549665 -7.066767,2.720116c-2.007541,0.16361 -4.054367,-0.476519 -5.480758,-1.856426c-0.658267,-0.636798 -1.041645,-1.550575 -1.05996,-2.436728c-0.018315,-0.886153 0.25331,-1.731239 0.68659,-2.567969c0.866565,-1.673446 2.418094,-3.3954 4.616349,-5.297725c1.969623,-1.704461 3.026904,-2.345623 5.538322,-3.35932c5.074031,-2.04811 10.357696,-2.410311 15.549542,-1.043815l0.000074,0.000018zm-29.173615,-9.32943l4.828685,2.001499c2.673648,1.10833 5.393988,2.282573 6.369406,2.774743l1.435556,0.724641a1.451684,1.416454 0 0 1 -0.041406,2.738694l-1.244501,0.58338c-2.461686,1.153376 -5.628988,3.614447 -7.997795,6.306373c-0.682779,0.775898 -1.496168,2.152402 -2.066845,3.491384c-0.570858,1.338909 -0.876105,2.74059 -0.855617,3.188726c0.058084,1.270758 0.871334,2.997898 1.892462,3.940714c1.148404,1.06029 4.303453,2.343871 5.939693,2.400499c2.346016,0.081194 6.134408,-1.042285 9.256675,-2.950509c0.51184,-0.312834 0.950349,-0.561286 1.51853,-0.703384c0.568182,-0.142098 1.272108,-0.068972 1.753904,0.123394c-0.168,-0.067077 0.282596,0.068698 0.733715,0.139268c0.451125,0.070527 1.013137,0.136998 1.541205,0.178786l2.081161,0.164969a1.451684,1.416454 0 0 1 1.188651,0.692876l0.63764,0.9562c0.466302,0.699966 1.599158,2.639982 2.723454,4.615513c3.421389,6.011829 6.740932,12.947491 9.225521,19.005411c1.242299,3.02895 2.274983,5.836218 3.008152,8.214987c0.733183,2.378763 1.187447,4.271723 1.198834,5.779743c0.012617,1.671578 -0.683256,3.168069 -1.807128,4.167506c-1.123847,0.999459 -2.834694,1.496267 -4.411499,0.884728c-0.365521,-0.141379 -0.943731,-0.52648 -1.321491,-1.002061c-0.37777,-0.475585 -0.722104,-1.068019 -1.238918,-2.042668c-1.033633,-1.949311 -2.71264,-5.44003 -5.880652,-12.061439c-1.157136,-2.418519 -2.199818,-4.517118 -2.987833,-6.026298c-0.394002,-0.754588 -0.726093,-1.364121 -0.965272,-1.77527c-0.087727,-0.150801 -0.143944,-0.238397 -0.200573,-0.327322c-0.108849,-0.051443 -0.28811,-0.128262 -0.529721,-0.135778c-0.291456,-0.009057 -0.555157,0.091338 -0.566549,0.098992c0.134323,-0.090094 -0.412183,0.509293 -0.490162,0.695234c-0.153378,0.365728 -0.119563,0.054898 -0.063962,0.288518c0.055692,0.233599 0.340533,0.949277 0.938206,2.258931c1.050695,2.302419 3.181157,6.744016 8.6462,18.019033l0.579214,1.193478a1.451684,1.416454 0 0 1 -0.71907,2.024884l-1.123346,0.544889c-0.995106,0.483293 -2.075375,0.617206 -3.136277,0.576432c-1.060891,-0.04077 -2.098999,-0.22544 -3.025561,-0.88505c-0.627003,-0.446367 -0.772405,-0.766509 -1.118555,-1.257351c-0.346135,-0.490848 -0.710362,-1.073332 -1.04145,-1.669817c-1.547976,-2.788862 -5.681441,-11.022159 -7.060637,-14.064987c-0.674893,-1.488966 -1.107141,-2.335402 -1.368452,-2.713591c-0.261297,-0.378196 -0.185537,-0.299047 -0.511647,-0.429252c0.029533,0.011792 -0.37791,-0.028842 -0.747963,0.117883c-0.370038,0.146719 -0.608353,0.449078 -0.58061,0.382926c-0.194381,0.4635 -0.186164,1.103764 0.302629,2.016306c0.358682,0.669643 1.540351,3.06971 2.759181,5.580852c1.210142,2.493258 2.827653,5.744902 3.567056,7.170787c0.38493,0.742276 0.733822,1.440808 0.992633,1.982195c0.129406,0.270694 0.235004,0.49922 0.317688,0.690362c0.041389,0.095555 0.078182,0.179582 0.113119,0.27458c0.034946,0.095035 0.123516,-0.039521 0.117706,0.62834c-0.005837,0.647802 -0.419787,1.127503 -0.696601,1.334468c-0.276849,0.206963 -0.493104,0.280868 -0.692525,0.344925c-0.398822,0.128122 -0.755129,0.17357 -1.146068,0.201712c-0.781878,0.056285 -1.638774,0.02115 -2.480329,-0.192925c-2.140091,-0.544407 -3.841401,-2.09938 -5.018429,-4.297874c-0.60072,-1.122076 -2.218157,-4.674244 -3.801777,-8.271263l-0.000819,0.001954l-2.564951,-5.826276l-0.317917,-0.080178c-0.538078,-0.136948 -0.901894,-0.015935 -1.153,0.185579c-0.244703,0.196362 -0.394294,0.482885 -0.35892,0.959237c0.029321,0.09507 0.079861,0.246225 0.14716,0.432946c0.134573,0.373443 0.333802,0.892979 0.578652,1.505085c0.4897,1.224212 1.160992,2.827194 1.890724,4.494632c0.909048,2.077163 1.551891,3.616157 1.949641,4.680743c0.19887,0.532291 0.337935,0.932787 0.427663,1.304473c0.044862,0.185848 0.091073,0.339106 0.082064,0.669795c-0.004477,0.16535 0.005411,0.395326 -0.213839,0.776606c-0.219266,0.381262 -0.928347,0.814938 -1.439704,0.803896c-1.048177,-0.022511 -1.715388,-0.387746 -2.5632,-0.811803c-0.84783,-0.424042 -1.694229,-0.941209 -2.381103,-1.545409c-0.675964,-0.594598 -1.29195,-1.265411 -2.28472,-2.885651c-0.992764,-1.620226 -2.502425,-4.322618 -5.35835,-9.458497c-3.479993,-6.258131 -6.999869,-12.702586 -9.647047,-17.630154c-1.323591,-2.463779 -2.428283,-4.547565 -3.203456,-6.045562c-0.387589,-0.749005 -0.691843,-1.350115 -0.905897,-1.79166c-0.107027,-0.220772 -0.191266,-0.399705 -0.259132,-0.557846c-0.033909,-0.079112 -0.064115,-0.148272 -0.097654,-0.246133c-0.016779,-0.048894 -0.035582,-0.103272 -0.056867,-0.196434c-0.021362,-0.093147 -0.089442,-0.176643 -0.021459,-0.596594a1.451684,1.416454 0 0 1 0.000819,-0.001954c0.067,-0.41365 0.134069,-0.433115 0.176395,-0.513138c0.041829,-0.080233 0.07701,-0.136253 0.112942,-0.193227c0.071972,-0.113928 0.149696,-0.225127 0.243417,-0.357194c0.187343,-0.264174 0.436148,-0.597206 0.738175,-0.992683c0.60405,-0.790944 1.418799,-1.824169 2.309803,-2.922171c3.062474,-3.773928 6.440417,-8.173255 9.253892,-12.001349c2.813465,-3.828099 5.100944,-7.171063 5.827133,-8.500559l0.363628,-0.665573a1.451684,1.416454 0 0 1 1.998229,-0.687808l0.000042,-0.000017zm72.262047,31.740841l3.168949,1.343266a1.451684,1.416454 0 0 1 0.9336,1.230284l0.164302,1.415371c0.227113,1.94672 0.017593,4.850592 -0.453571,8.429851c-0.47117,3.579246 -1.227748,7.763242 -2.189425,11.937547c-0.626723,2.720407 -1.430191,5.901752 -2.108021,8.428571c-0.338921,1.263396 -0.644933,2.360477 -0.887617,3.167043c-0.121325,0.403284 -0.224996,0.73047 -0.318366,0.993242c-0.046883,0.131301 -0.08853,0.243983 -0.148015,0.375236c-0.029859,0.065626 -0.059283,0.132999 -0.130644,0.246305c-0.07096,0.113466 -0.006369,0.3361 -0.758497,0.643782c-0.479243,0.19598 -0.626552,0.127277 -0.755427,0.11935c-0.128877,-0.007893 -0.209926,-0.022007 -0.286123,-0.036236c-0.152353,-0.028556 -0.276625,-0.060612 -0.418984,-0.100459c-0.284676,-0.079792 -0.619529,-0.188172 -1.015115,-0.322852c-0.79111,-0.269451 -1.810263,-0.643067 -2.893887,-1.057478c-2.16729,-0.828724 -4.541184,-1.794336 -5.839784,-2.431884c-0.887429,-0.435633 -1.550278,-0.711692 -2.181606,-1.084872c-0.631342,-0.373175 -1.300867,-0.989538 -1.598471,-1.778623c-0.595209,-1.57817 -0.224167,-3.000873 0.012333,-6.316299c0.51187,-7.175908 0.874372,-18.168137 0.769065,-23.062292c-0.032562,-1.512848 -0.037329,-2.466897 0.023418,-3.180222c0.030375,-0.356667 0.057698,-0.649482 0.211633,-1.038081c0.153669,-0.388717 0.701269,-1.042326 1.400184,-1.156015c0.732556,-0.119131 1.055883,-0.026381 1.753023,0.038402c0.69715,0.064787 1.548544,0.16672 2.452863,0.291107c1.808653,0.248768 3.802385,0.577648 5.148433,0.890697c1.751817,0.407423 3.839215,1.12215 5.945956,2.015434l-0.000207,-0.000174z"/>
   <path fill="#616363" stroke="#75787a" id="path6703-5-7" d="m214.847329,240.12503c-0.414993,-0.092051 -0.53241,-0.085992 -0.49406,-0.092404c0.03836,-0.00643 0.008682,-0.041526 -0.302442,0.241569c-0.622282,0.566209 -1.937346,2.214192 -4.426058,5.445358c-9.611597,12.478975 -17.695622,24.211629 -22.270572,32.288026l-1.417799,2.502439l0.119561,0.337055l0.001007,-0.001855c0.171146,0.480533 0.389917,0.830635 1.687105,1.71391c1.297188,0.883275 3.56092,2.12994 7.289819,4.05781c1.757658,0.908755 3.46532,1.764293 4.790725,2.404926c0.662719,0.320307 1.230758,0.585947 1.65253,0.775557c0.421782,0.189567 0.831303,0.324599 0.640948,0.275452c0.532126,0.137533 0.580603,0.136778 0.947581,-0.034272c0.366969,-0.171055 1.050452,-0.683052 2.094625,-1.679731l1.953304,-1.864404a1.344891,1.344891 0 0 1 2.479645,0.539797l5.20304,13.065648c4.588243,11.52146 7.117502,17.79289 8.765896,21.402623c1.648384,3.609728 2.276669,4.394829 3.396824,5.481011c0.434213,0.421126 1.457888,1.115395 2.938236,1.867963c2.301642,1.170099 3.084485,1.299866 4.483915,0.952766c0.366664,-0.090928 1.079108,-0.219736 1.723843,0.087068c0.644739,0.306818 0.866479,0.650281 1.245871,1.07077c2.136461,2.367924 6.598833,3.54439 8.968815,2.637973c0.575532,-0.220117 1.121462,-0.480909 1.919973,-0.364732c0.798511,0.116177 1.218175,0.481273 1.779533,0.865627c0.871912,0.597022 3.061998,1.283881 4.569156,1.32278c1.086214,0.02804 3.550436,-0.690653 4.045695,-1.030577c0.424739,-0.291507 0.919423,-0.597621 1.575232,-0.6716c0.655818,-0.073974 1.184623,0.101871 1.683067,0.283086c1.921179,0.698462 4.787735,0.302003 6.521764,-0.929065c0.828935,-0.588491 0.911642,-0.703219 1.943401,-2.524279c0.355998,-0.628477 0.704954,-1.212808 0.991899,-1.666378c0.143475,-0.22679 0.268433,-0.419929 0.386031,-0.585586c0.058824,-0.082875 0.113962,-0.155644 0.185292,-0.241864c0.071423,-0.086169 0.02221,-0.157434 0.488522,-0.424356a1.344891,1.344891 0 0 1 0.001855,0.001007c0.376488,-0.215406 0.43741,-0.184827 0.576574,-0.219359c0.139174,-0.03455 0.279293,-0.062569 0.433849,-0.090434c0.309103,-0.055735 0.66827,-0.106631 1.041811,-0.147305l1.232345,-0.135307a1.344891,1.344891 0 0 1 1.462068,0.707255l0.564438,0.900067c0.962169,1.529561 3.002172,3.031228 10.214371,6.927108c3.790985,2.048189 5.861129,3.10973 6.852067,3.447092c0.495468,0.168693 0.640074,0.141081 0.6335,0.142327c-0.006652,0.001191 0.024553,0.008531 0.297736,-0.211276c-0.025343,0.020346 0.397052,-0.470649 1.019215,-1.846262c0.622136,-1.375627 1.501113,-3.585224 2.805683,-7.005727c2.950715,-7.736644 5.156814,-14.979011 6.379522,-20.6131c0.611359,-2.817042 0.975537,-5.236566 1.073659,-7.069085c0.098113,-1.832524 -0.188926,-3.098022 -0.318378,-3.314035c0.091925,0.153461 -0.18919,-0.214096 -0.627033,-0.577499c-0.437844,-0.36338 -1.055752,-0.822672 -1.794341,-1.326443c-4.052368,-2.763996 -9.298706,-4.763625 -16.160765,-6.072616l-3.807171,-0.725949a1.344891,1.344891 0 0 1 -0.82584,-0.453343l-1.842342,-1.950714c-1.748809,-1.851894 -4.983136,-5.724062 -10.279087,-12.280338c-4.010088,-4.964422 -9.18015,-7.695557 -15.770569,-8.302735l-2.278667,-0.210121a1.344891,1.344891 0 0 1 -0.672144,-0.226661l-3.753824,-2.353163c-2.023253,-1.267979 -6.256045,-3.785341 -9.334992,-5.548676c-5.465793,-3.130207 -5.976901,-3.48775 -8.469532,-5.772991c-2.953343,-2.707619 -6.868485,-6.01503 -10.174879,-8.662714c-1.653197,-1.323842 -3.157033,-2.4852 -4.300444,-3.316267c-0.571721,-0.415494 -1.055828,-0.750372 -1.403293,-0.970956c-0.347471,-0.220551 -0.743992,-0.320249 -0.337163,-0.230086l-0.000153,0.000193zm1.277372,3.595613c0.308108,0.172147 0.396132,0.289979 0.430949,0.3209c-0.022205,-0.019267 0.600725,0.498051 1.368684,1.121055c0.767959,0.623004 1.771835,1.433847 2.826455,2.281115c3.498231,2.810466 6.946629,5.741984 8.897223,7.577023c0.242395,0.228099 0.613912,0.511099 0.846753,1.1707c0.232846,0.659591 0.05912,1.416781 -0.19431,1.921295c-0.506842,1.009039 -1.349331,1.946987 -3.004175,3.937437c-4.681541,5.630963 -14.013175,15.411303 -22.028398,23.108805l0.001855,0.001007l-1.983332,1.906732a1.344891,1.344891 0 0 1 -1.69323,0.288479l-2.044026,-0.927187c-1.220622,-0.553658 -3.832711,-1.880275 -5.964368,-3.021263l-3.829622,-2.049476a1.344891,1.344891 0 0 1 -0.588735,-2.142551l1.910351,-3.154494c3.917534,-6.467547 10.679045,-16.222182 17.356802,-25.05494c2.758399,-3.648564 4.07889,-5.412375 4.899559,-6.351725c0.410328,-0.469684 0.582849,-0.840599 1.433493,-1.088742c0.425322,-0.124071 1.050095,-0.01656 1.358072,0.155828zm45.516879,27.431073c3.239094,1.266108 5.703749,3.214864 8.424899,6.572153c4.919903,6.07003 8.260802,10.030589 10.034784,11.922447l2.007382,2.143574a1.344891,1.344891 0 0 1 0.408468,1.174276l-0.310687,3.720707c-0.357865,4.278402 -0.607058,6.403776 -1.425534,12.221864c-0.251141,1.78513 -0.801713,5.268627 -1.306293,8.352605c-0.252297,1.541991 -0.490589,2.980067 -0.676156,4.05238c-0.092783,0.536156 -0.172179,0.980303 -0.23342,1.306549c-0.030593,0.163138 -0.056472,0.295483 -0.080213,0.406841c-0.011853,0.055658 -0.022799,0.105444 -0.037841,0.164763c-0.015047,0.059328 0.068877,-0.010274 -0.154786,0.40153c-0.000156,0.000288 -0.188916,0.274631 -0.189195,0.274924c-0.000266,0.000312 -0.111542,0.115365 -0.156562,0.154247c-0.089946,0.077814 -0.153962,0.118942 -0.206198,0.150745c-0.104362,0.063666 -0.162042,0.087601 -0.208423,0.107318c-0.092773,0.039453 -0.137644,0.050863 -0.180194,0.063989c-0.085005,0.026257 -0.145445,0.042182 -0.215096,0.059122c-0.139293,0.033885 -0.299756,0.068534 -0.49534,0.108647c-0.391158,0.080231 -0.90774,0.178121 -1.47147,0.277549c-0.566239,0.099867 -1.087704,0.182686 -1.488652,0.240076c-0.200467,0.028693 -0.367833,0.052279 -0.51516,0.067387c-0.07365,0.007562 -0.137721,0.01456 -0.230293,0.018018c-0.046343,0.001734 -0.095246,0.003759 -0.195435,-0.002973c-0.050092,-0.003305 -0.112322,-0.006596 -0.223159,-0.029682c-0.05543,-0.011609 -0.124848,-0.028293 -0.221078,-0.063743c-0.048138,-0.017738 -0.167709,-0.074633 -0.168126,-0.07486c-0.000422,-0.000217 -0.225488,-0.141206 -0.225822,-0.141387a1.344891,1.344891 0 0 1 -0.009844,-0.007749c-0.000622,-0.00047 -0.225346,-0.20803 -0.282825,-0.282631c-0.057498,-0.074588 -0.092542,-0.130255 -0.119459,-0.177423c-0.053852,-0.094347 -0.076933,-0.153245 -0.095612,-0.199724c-0.037365,-0.09308 -0.049489,-0.139421 -0.062029,-0.183826c-0.025093,-0.088696 -0.038261,-0.150474 -0.052548,-0.218552c-0.028611,-0.136177 -0.055467,-0.288035 -0.085567,-0.468728c-0.060191,-0.361381 -0.12963,-0.828579 -0.197192,-1.338682c-0.948243,-7.159651 -6.129609,-23.246147 -10.960475,-33.718681c-1.025269,-2.222628 -1.569,-3.212568 -1.862053,-3.490918c-0.293068,-0.278322 -0.687159,-0.375619 -2.311081,-0.668752c-1.537938,-0.277229 -3.254531,-0.693612 -4.293856,-1.116961c-0.324062,-0.132048 -0.686569,-0.257953 -0.972608,-0.342937c-0.286044,-0.084975 -0.639168,-0.10374 -0.338783,-0.101849c0.425781,0.002616 0.202712,-0.021239 0.054511,0.024802c-0.148219,0.04614 -0.375117,0.126261 -0.642375,0.228192c-0.534505,0.203845 -1.234243,0.495791 -1.935277,0.816196c-3.085552,1.410284 -5.103513,2.005696 -7.150532,1.95286c-1.964988,-0.05073 -3.880531,-0.904591 -5.113717,-2.427887c-0.569106,-0.702971 -0.841421,-1.652057 -0.762661,-2.534884c0.07876,-0.882827 0.434268,-1.694016 0.945659,-2.479717c1.022785,-1.571388 2.715218,-3.118197 5.054574,-4.775567c2.096048,-1.484983 3.191371,-2.00996 5.737678,-2.750707c5.144527,-1.496645 10.308743,-1.295131 15.195604,0.615034l0.00007,0.000026zm-27.280035,-12.374553l4.465453,2.502792c2.472516,1.385897 4.983139,2.842276 5.875613,3.435187l1.313451,0.872903a1.344891,1.344891 0 0 1 -0.338475,2.717998l-1.270619,0.44764c-2.513285,0.88488 -5.853408,2.994679 -8.444195,5.418827c-0.74676,0.698714 -1.685624,1.98058 -2.384988,3.250941c-0.699531,1.270271 -1.148278,2.631169 -1.177219,3.078816c-0.082081,1.269371 0.518582,3.072667 1.406304,4.118401c0.998374,1.176036 3.918723,2.787304 5.499587,3.017499c2.266618,0.33005 6.063453,-0.384106 9.299676,-1.949134c0.530522,-0.256573 0.982906,-0.456941 1.549479,-0.537806c0.566572,-0.080865 1.241364,0.066641 1.687716,0.309069c-0.155641,-0.084534 0.266614,0.098324 0.696479,0.216421c0.429876,0.118054 0.967746,0.243861 1.47538,0.341524l2.000603,0.385178a1.344891,1.344891 0 0 1 1.077432,0.815086l0.514309,1.018281c0.376034,0.74536 1.263503,2.794235 2.138802,4.877505c2.663652,6.339691 5.127892,13.586893 6.877898,19.872835c0.875008,3.142961 1.570852,6.043282 2.022863,8.48582c0.452025,2.442534 0.686436,4.37251 0.533218,5.872767c-0.16984,1.662973 -1.007791,3.0766 -2.206729,3.950643c-1.198915,0.874067 -2.912425,1.186087 -4.375197,0.4106c-0.339128,-0.179386 -0.858002,-0.623649 -1.172599,-1.136549c-0.314606,-0.512905 -0.584053,-1.138411 -0.97916,-2.162188c-0.790218,-2.047569 -2.038502,-5.695966 -4.389999,-12.61468c-0.858898,-2.527111 -1.641631,-4.724042 -2.241559,-6.307994c-0.299959,-0.791973 -0.555669,-1.433175 -0.74287,-1.867298c-0.068663,-0.159227 -0.113647,-0.252277 -0.158887,-0.346692c-0.099972,-0.062705 -0.265474,-0.15812 -0.499,-0.19127c-0.281704,-0.03998 -0.548411,0.031791 -0.560293,0.038189c0.140097,-0.075282 -0.455262,0.462455 -0.55115,0.639002c-0.188602,0.347251 -0.121947,0.041864 -0.093465,0.280003c0.028572,0.238128 0.226891,0.979821 0.663935,2.345204c0.768304,2.400389 2.350891,7.041989 6.423441,18.830755l0.431795,1.247936a1.344891,1.344891 0 0 1 -0.918007,1.936411l-1.148914,0.422255c-1.017823,0.374656 -2.08019,0.392958 -3.104745,0.239672c-1.024545,-0.153281 -2.011317,-0.447184 -2.838166,-1.201347c-0.559526,-0.51035 -0.665684,-0.844041 -0.947958,-1.368752c-0.28226,-0.524715 -0.572085,-1.142444 -0.828243,-1.770569c-1.197644,-2.93679 -4.309982,-11.560412 -5.316259,-14.731719c-0.49241,-1.551835 -0.81946,-2.439175 -1.031717,-2.842887c-0.212243,-0.403716 -0.147384,-0.316987 -0.449503,-0.481077c0.027361,0.01486 -0.363404,-0.068835 -0.738309,0.037686c-0.374891,0.106517 -0.638973,0.381749 -0.60486,0.318939c-0.239022,0.440083 -0.300794,1.077411 0.0739,2.036473c0.274953,0.70378 1.159657,3.215157 2.068304,5.840897c0.902168,2.60704 2.116848,6.011249 2.678698,7.507235c0.292501,0.77877 0.554812,1.510228 0.746869,2.0759c0.096029,0.282836 0.173559,0.521227 0.232936,0.720019c0.029736,0.099386 0.056269,0.186823 0.079809,0.284969c0.023543,0.098184 0.124107,-0.026158 0.045724,0.637111c-0.076224,0.643327 -0.529976,1.076179 -0.821009,1.252492c-0.291066,0.176307 -0.508868,0.226789 -0.709269,0.26927c-0.400783,0.084972 -0.751326,0.09228 -1.133573,0.078706c-0.764494,-0.027149 -1.591794,-0.153149 -2.384721,-0.455391c-2.01643,-0.768621 -3.497199,-2.495161 -4.399356,-4.805671c-0.460431,-1.179245 -1.642303,-4.882182 -2.78649,-8.626109l-0.001007,0.001855l-1.853183,-6.064217l-0.299623,-0.11349c-0.506978,-0.193321 -0.873034,-0.111696 -1.138539,0.061932c-0.258733,0.169186 -0.435034,0.438105 -0.452611,0.915382c0.018083,0.097621 0.050639,0.253248 0.095576,0.44601c0.089849,0.385524 0.226495,0.923143 0.397307,1.55763c0.341625,1.268974 0.818123,2.933764 1.344282,4.668839c0.655453,2.161419 1.111328,3.759579 1.381155,4.860105c0.134909,0.55026 0.226167,0.963154 0.272711,1.342164c0.023269,0.18951 0.051397,0.346767 0.006638,0.674532c-0.022353,0.16389 -0.037813,0.393549 -0.292001,0.749258c-0.254201,0.35569 -0.989196,0.711422 -1.483971,0.646098c-1.014202,-0.133779 -1.621564,-0.567753 -2.397688,-1.079395c-0.776144,-0.511628 -1.540755,-1.115675 -2.141159,-1.789282c-0.590868,-0.662903 -1.115261,-1.395193 -1.901688,-3.111306c-0.786423,-1.716099 -1.956323,-4.562861 -4.166931,-9.971715c-2.693665,-6.590756 -5.405718,-13.370965 -7.436548,-18.550562c-1.015417,-2.589793 -1.859909,-4.77859 -2.448599,-6.35006c-0.294347,-0.785742 -0.523974,-1.415612 -0.683495,-1.87728c-0.079761,-0.230834 -0.141976,-0.417655 -0.190575,-0.582068c-0.024272,-0.082245 -0.046036,-0.154204 -0.067907,-0.255047c-0.010948,-0.050386 -0.023263,-0.106439 -0.03376,-0.201309c-0.010573,-0.094863 -0.067512,-0.185098 0.044171,-0.595325a1.344891,1.344891 0 0 1 0.001007,-0.001855c0.110043,-0.404068 0.177215,-0.416288 0.226984,-0.491337c0.049311,-0.07531 0.089536,-0.127257 0.130593,-0.180074c0.082218,-0.105601 0.169716,-0.207877 0.275004,-0.329197c0.210484,-0.242691 0.488082,-0.547298 0.824104,-0.908321c0.672038,-0.722038 1.574829,-1.662522 2.558637,-2.659293c3.381451,-3.425987 7.137004,-7.440122 10.282845,-10.946417c3.145831,-3.5063 5.72865,-6.586255 6.577817,-7.83066l0.42519,-0.622966a1.344891,1.344891 0 0 1 2.013054,-0.471339l0.000043,-0.000013zm66.631453,39.232145l2.927331,1.672076a1.344891,1.344891 0 0 1 0.771513,1.322188l0.005191,1.424412c0.008235,1.959275 -0.51129,4.8236 -1.358157,8.331486c-0.846871,3.507872 -2.03644,7.586562 -3.423884,11.633821c-0.904197,2.63761 -2.030031,5.714632 -2.962711,8.154376c-0.466344,1.219857 -0.882653,2.277888 -1.205895,3.053861c-0.161604,0.38799 -0.297796,0.70221 -0.416981,0.953495c-0.059775,0.125537 -0.112443,0.233123 -0.184437,0.357272c-0.03611,0.062062 -0.071987,0.125907 -0.153543,0.230954c-0.081185,0.105249 -0.042787,0.333423 -0.80581,0.559337c-0.486178,0.143879 -0.621573,0.059928 -0.745709,0.038352c-0.124142,-0.021544 -0.201216,-0.044188 -0.273571,-0.066431c-0.144661,-0.044579 -0.261704,-0.089652 -0.39544,-0.144392c-0.267423,-0.109573 -0.580401,-0.252897 -0.949419,-0.42882c-0.737968,-0.351929 -1.685775,-0.831639 -2.69167,-1.358754c-2.011841,-1.054137 -4.209164,-2.266306 -5.399265,-3.038079c-0.813289,-0.527359 -1.426133,-0.872224 -1.997826,-1.310283c-0.571707,-0.438055 -1.153958,-1.121909 -1.356661,-1.937929c-0.405405,-1.632039 0.109447,-3.006843 0.699968,-6.277405c1.278116,-7.078808 2.827051,-17.967104 3.258009,-22.843331c0.133205,-1.507308 0.232502,-2.456187 0.369121,-3.158811c0.068312,-0.351317 0.126708,-0.639485 0.318342,-1.009411c0.191388,-0.370072 0.793715,-0.961592 1.483995,-1.000322c0.723501,-0.040564 1.027002,0.085998 1.69612,0.224489c0.669127,0.138496 1.483813,0.33031 2.347387,0.55007c1.727162,0.439515 3.625111,0.978337 4.89658,1.432584c1.654755,0.591185 3.601524,1.523513 5.547605,2.635391l-0.000182,-0.000195z"/>
   <path fill="#faa633" d="m336.779214,293.266609l-15.65234,0.0527l-15.65235,0.0527l-0.25,5.30664c-0.30344,6.40544 -2.16483,13.93788 -5.32226,21.54297l-2.34375,5.64648c2.21103,-5.32557 -9.46084,13.30232 -10.83203,15.4961l36.80468,0c6.4571,-12.19769 10.63261,-24.96879 12.04688,-37.47259l1.20117,-10.625z" id="path4220"/>
   <path fill="#9e78b0" d="m210.411214,337.175649l-8.59766,-12.33203l-3.01366,-7.74414c-3.28437,-8.439 -4.41606,-13.39802 -4.625,-20.28516l-0.13477,-4.47265l-15.54884,-0.0937l-15.54686,-0.0937l0.30858,5.03906c0.51667,8.44522 3.95495,23.86677 7.05275,31.6289c1.07079,2.6831 2.36844,5.48707 3.84569,8.35352l36.25977,0l0,-0.0001z" id="path5047-7-2"/>
   <path fill="#616363" stroke="#75787a" id="path6703-5" d="m293.036183,48.469193c0.428916,-0.036513 0.54595,-0.014623 0.508322,-0.026222c-0.037635,-0.011619 -0.003122,-0.042848 0.27103,0.283182c0.548336,0.652082 1.646352,2.483204 3.709169,6.061367c7.966766,13.819103 14.500822,26.683455 18.005174,35.4056l1.08608,2.702558l-0.165384,0.322198l-0.000761,-0.001997c-0.236479,0.459259 -0.503195,0.781194 -1.92409,1.493063c-1.420896,0.711869 -3.860824,1.658325 -7.863039,3.091217c-1.886492,0.675442 -3.715639,1.304203 -5.132185,1.768735c-0.708289,0.232255 -1.314187,0.42239 -1.763042,0.555908c-0.448861,0.133474 -0.878071,0.213864 -0.680397,0.190166c-0.552604,0.066391 -0.601159,0.059106 -0.946458,-0.161986c-0.345289,-0.221096 -0.962352,-0.827007 -1.876173,-1.967951l-1.709466,-2.134276a-1.448198,1.448198 0 0 1 -2.561461,0.207913l-6.981438,12.413213c-6.156458,10.946116 -9.539454,16.900095 -11.679955,20.301177c-2.14049,3.401078 -2.8768,4.104476 -4.147331,5.043835c-0.492515,0.364212 -1.613441,0.923206 -3.200573,1.479224c-2.467669,0.864504 -3.270868,0.889342 -4.628718,0.352537c-0.355772,-0.140632 -1.053497,-0.365842 -1.741917,-0.144719c-0.688426,0.221137 -0.957228,0.536009 -1.394635,0.906964c-2.463162,2.088982 -7.100377,2.668943 -9.357046,1.44008c-0.548014,-0.29842 -1.060841,-0.633681 -1.877936,-0.624592c-0.817096,0.009089 -1.287464,0.319024 -1.902641,0.629209c-0.955511,0.481822 -3.246147,0.876326 -4.764094,0.712436c-1.093991,-0.118111 -3.470521,-1.171248 -3.921836,-1.579108c-0.387054,-0.34977 -0.842343,-0.723618 -1.490607,-0.886172c-0.648273,-0.16255 -1.202703,-0.057258 -1.727383,0.057512c-2.022301,0.442357 -4.846035,-0.341532 -6.420694,-1.810614c-0.752751,-0.702271 -0.820315,-0.828558 -1.610677,-2.795248c-0.272688,-0.678726 -0.544252,-1.312194 -0.771182,-1.806071c-0.113467,-0.246944 -0.21288,-0.457619 -0.308606,-0.63972c-0.047882,-0.0911 -0.093425,-0.171562 -0.153409,-0.267703c-0.060084,-0.096103 -0.001094,-0.161005 -0.433184,-0.491697a-1.448198,1.448198 0 0 1 -0.001997,0.000761c-0.348871,-0.266891 -0.414135,-0.244403 -0.549162,-0.2978c-0.135035,-0.053416 -0.271897,-0.100405 -0.423271,-0.149183c-0.302737,-0.097559 -0.656374,-0.197003 -1.025815,-0.288123l-1.218666,-0.301736a-1.448198,1.448198 0 0 1 -1.562683,0.513l-0.687707,0.827384c-1.171662,1.405644 -3.421373,2.638165 -11.184702,5.577307c-4.08073,1.545295 -6.301432,2.332011 -7.341444,2.537191c-0.520007,0.102602 -0.661428,0.055418 -0.654998,0.057553c0.006517,0.002091 -0.025792,0.005257 -0.270385,-0.252143c0.022697,0.023833 -0.335143,-0.525844 -0.774379,-1.990296c-0.439206,-1.464463 -1.023908,-3.80055 -1.872729,-7.409308c-1.91988,-8.162445 -3.158954,-15.728532 -3.627562,-21.548008c-0.234309,-2.909736 -0.274051,-5.387208 -0.125793,-7.23969c0.148267,-1.852485 0.606756,-3.083996 0.76577,-3.283375c-0.112927,0.141649 0.218714,-0.189411 0.7071,-0.495199c0.488384,-0.305764 1.17041,-0.68355 1.979551,-1.089729c4.439456,-2.228545 9.974362,-3.529144 17.037948,-3.919012l3.918942,-0.216005a-1.448198,1.448198 0 0 1 0.889923,-0.343817l2.111784,-1.709837c2.004601,-1.623247 5.772212,-5.074192 11.970445,-10.941543c4.693297,-4.442769 10.250139,-6.48784 16.94659,-6.209884l2.315353,0.095918a-1.448198,1.448198 0 0 1 0.705139,-0.136995l4.084495,-1.856396c2.201434,-1.000228 6.78877,-2.956937 10.116484,-4.312202c5.907396,-2.405794 6.468529,-2.695835 9.278039,-4.653872c3.328792,-2.319939 7.703684,-5.112377 11.378756,-7.324624c1.837536,-1.106123 3.503284,-2.069275 4.762806,-2.749448c0.629772,-0.340045 1.160752,-0.610974 1.539197,-0.785585c0.378447,-0.174578 0.789853,-0.221254 0.369385,-0.185536l0.000128,0.000214zm-1.766211,3.436866c-0.332422,0.131296 -0.436636,0.23771 -0.475744,0.264056c0.024881,-0.016348 -0.669998,0.419001 -1.524671,0.940897c-0.854673,0.521897 -1.971423,1.200559 -3.144009,1.908949c-3.889534,2.349798 -7.745352,4.827803 -9.950211,6.406964c-0.274001,0.196302 -0.684991,0.430321 -1.007502,1.061001c-0.322515,0.63067 -0.250101,1.41404 -0.063668,1.954536c0.372847,1.081 1.092149,2.13584 2.485084,4.356441c3.940603,6.282055 11.989733,17.354886 18.998048,26.159958l-0.001997,0.000761l1.733905,2.180803a-1.448198,1.448198 0 0 1 1.660625,0.517528l2.176398,-0.655384c1.299666,-0.391346 4.100001,-1.371145 6.393139,-2.229318l4.119682,-1.541384a-1.448198,1.448198 0 0 1 0.879389,-2.071173l-1.49265,-3.423335c-3.061139,-7.01885 -8.534141,-17.719826 -14.047206,-27.484252c-2.277298,-4.033411 -3.365164,-5.981518 -4.062377,-7.034827c-0.348599,-0.526663 -0.471813,-0.922173 -1.29218,-1.285766c-0.410183,-0.181796 -1.051733,-0.158012 -1.384057,-0.026456zm-49.378024,21.403479c-3.421502,0.834643 -6.157628,2.458723 -9.340845,5.461988c-5.755329,5.429948 -9.641807,8.955259 -11.677054,10.615228l-2.303399,1.881185a-1.448198,1.448198 0 0 1 -0.568084,1.123603l-0.189145,3.776246c-0.216884,4.342348 -0.252945,6.509104 -0.214834,12.458828c0.011706,1.825521 0.09527,5.395983 0.186465,8.55926c0.045604,1.581642 0.091144,3.057101 0.133012,4.15835c0.020934,0.550624 0.040819,1.007097 0.058359,1.342791c0.00874,0.167859 0.016894,0.304175 0.025729,0.41914c0.004403,0.057459 0.008685,0.108902 0.015796,0.170465c0.007115,0.061573 -0.067748,-0.019586 0.101292,0.42385c0.000118,0.00031 0.152634,0.301079 0.152875,0.301411c0.000225,0.000349 0.09642,0.130809 0.13637,0.175895c0.0798,0.090211 0.138514,0.14011 0.186661,0.179064c0.096174,0.077953 0.150844,0.109742 0.194741,0.135777c0.087802,0.05209 0.131303,0.069583 0.172242,0.088487c0.081783,0.037799 0.140301,0.061921 0.207928,0.088301c0.135244,0.052765 0.291633,0.109148 0.482536,0.175743c0.381796,0.133194 0.887101,0.301001 1.43952,0.476698c0.554878,0.176476 1.067112,0.329814 1.46181,0.4414c0.197342,0.05579 0.362149,0.101998 0.507985,0.136999c0.072903,0.017506 0.136268,0.033157 0.228716,0.049092c0.04628,0.00798 0.095091,0.016597 0.196555,0.02333c0.050721,0.003428 0.113624,0.008503 0.227978,0.000256c0.057198,-0.004189 0.129117,-0.011587 0.230475,-0.034211c0.050704,-0.011321 0.178376,-0.052327 0.178825,-0.052498c0.000453,-0.000161 0.245331,-0.111365 0.245691,-0.111502a-1.448198,1.448198 0 0 1 0.010924,-0.006452c0.000687,-0.000388 0.254187,-0.178454 0.321922,-0.245591c0.067752,-0.067121 0.110421,-0.118274 0.143788,-0.161992c0.066754,-0.087444 0.09785,-0.143451 0.122857,-0.187586c0.050035,-0.088392 0.068444,-0.133271 0.087009,-0.176151c0.037128,-0.085644 0.058663,-0.145877 0.082169,-0.212282c0.047052,-0.132826 0.094454,-0.281628 0.148994,-0.458933c0.109071,-0.354607 0.241672,-0.814177 0.378166,-1.317062c1.915751,-7.058349 9.282178,-22.506457 15.54092,-32.367114c1.328313,-2.092767 2.007337,-3.013143 2.338948,-3.25306c0.331623,-0.239887 0.740266,-0.28448 2.409639,-0.360039c1.580931,-0.071173 3.359912,-0.257959 4.460068,-0.542927c0.343036,-0.088901 0.72383,-0.166459 1.022365,-0.213243c0.298539,-0.046774 0.655491,-0.018061 0.353744,-0.056609c-0.427702,-0.054704 -0.200599,-0.048612 -0.058051,0.017554c0.142553,0.066267 0.359498,0.177234 0.614016,0.315526c0.509027,0.276564 1.172034,0.663803 1.832509,1.079779c2.90703,1.830935 4.852255,2.70025 6.913929,2.922841c1.979057,0.21366 4.016626,-0.385427 5.459459,-1.748291c0.665855,-0.628933 1.066963,-1.544849 1.106781,-2.441533c0.039818,-0.896684 -0.207776,-1.758728 -0.61526,-2.61618c-0.814973,-1.71489 -2.305369,-3.495276 -4.430186,-5.473735c-1.903823,-1.772677 -2.932495,-2.447068 -5.388444,-3.533392c-4.961962,-2.194846 -10.172335,-2.687928 -15.334393,-1.42872l-0.000074,0.000017zm29.046707,-8.747004l-4.818892,1.910759c-2.668229,1.058089 -5.384196,2.181789 -6.35979,2.656717l-1.435822,0.699268a-1.448198,1.448198 0 0 1 -0.026245,2.773585l1.215027,0.620372c2.403399,1.226542 5.471751,3.793846 7.745681,6.575761c0.655433,0.801835 1.425157,2.214837 1.956049,3.584044c0.531072,1.369139 0.798232,2.795472 0.767007,3.248665c-0.088532,1.285099 -0.934213,3.014162 -1.966008,3.94422c-1.1604,1.045942 -4.308457,2.269934 -5.926139,2.28812c-2.319407,0.026076 -6.034072,-1.201938 -9.071491,-3.208474c-0.49793,-0.328951 -0.925002,-0.590968 -1.482773,-0.748417c-0.557771,-0.157449 -1.254909,-0.100257 -1.735548,0.082964c0.167597,-0.063889 -0.280835,0.062788 -0.728185,0.12344c-0.447355,0.060608 -1.004145,0.114457 -1.5268,0.144129l-2.059835,0.117225a-1.448198,1.448198 0 0 1 -1.191149,0.673017l-0.653311,0.952782c-0.477778,0.697475 -1.644389,2.634404 -2.803415,4.607493c-3.527075,6.004396 -6.976197,12.946497 -9.579022,19.019964c-1.301417,3.036724 -2.390339,5.854036 -3.172892,8.244711c-0.782567,2.390668 -1.277703,4.296192 -1.325924,5.822606c-0.053446,1.691967 0.597253,3.223628 1.682922,4.262323c1.085642,1.038716 2.763452,1.582601 4.336029,1.001213c0.364531,-0.134385 0.945135,-0.510421 1.32995,-0.982851c0.384825,-0.472434 0.739486,-1.063964 1.273896,-2.038314c1.068825,-1.948713 2.812947,-5.442474 6.104681,-12.070057c1.202326,-2.420774 2.28375,-4.520406 3.099159,-6.029415c0.4077,-0.754503 0.750686,-1.363636 0.99703,-1.774152c0.090355,-0.150569 0.148034,-0.237905 0.206153,-0.326575c0.108783,-0.049476 0.287742,-0.122957 0.526592,-0.124786c0.288125,-0.002197 0.54615,0.10575 0.557215,0.113771c-0.130477,-0.094422 0.394671,0.525457 0.467141,0.715566c0.142541,0.373924 0.11676,0.058438 0.056108,0.293619c-0.06074,0.235158 -0.359656,0.952881 -0.982152,2.264448c-1.094336,2.305783 -3.307723,6.751393 -8.98258,18.035236l-0.601414,1.194394a-1.448198,1.448198 0 0 1 0.660659,2.06715l1.096292,0.578507c0.971126,0.513081 2.034943,0.674494 3.083911,0.658594c1.048958,-0.015895 2.078938,-0.178017 3.010377,-0.823626c0.630303,-0.436892 0.781782,-0.757519 1.135746,-1.246156c0.35395,-0.488643 0.728018,-1.069624 1.069694,-1.665573c1.597481,-2.786351 5.882417,-11.022678 7.319403,-14.070177c0.703171,-1.491251 1.150902,-2.337824 1.4183,-2.714444c0.267384,-0.376626 0.190607,-0.29831 0.515934,-0.422325c-0.029463,0.011231 0.374011,-0.020158 0.735955,0.137235c0.36193,0.157387 0.589926,0.46919 0.564144,0.401556c0.180648,0.473887 0.156833,1.12188 -0.348374,2.034025c-0.370727,0.669352 -1.596835,3.070858 -2.862373,5.583925c-1.256518,2.495171 -2.934033,5.748369 -3.699382,7.174215c-0.398436,0.742255 -0.760201,1.441088 -1.029131,1.982985c-0.134465,0.270949 -0.244379,0.499778 -0.330741,0.691307c-0.043228,0.095748 -0.081632,0.179935 -0.118473,0.275273c-0.03685,0.095376 -0.121042,-0.042965 -0.131676,0.633302c-0.010117,0.65596 0.387026,1.151502 0.655391,1.367651c0.2684,0.216147 0.480207,0.296141 0.675626,0.365762c0.390819,0.139249 0.741668,0.193783 1.127151,0.231626c0.770966,0.075686 1.618278,0.060615 2.454823,-0.135977c2.127349,-0.499949 3.846044,-2.03347 5.062625,-4.23102c0.620907,-1.121595 2.305717,-4.679038 3.958222,-8.282698l0.000761,0.001997l2.676529,-5.837034l0.316007,-0.073565c0.534876,-0.125771 0.89129,0.005443 1.134395,0.215459c0.236906,0.204647 0.377648,0.498294 0.331027,0.979696c-0.031294,0.095546 -0.084925,0.247362 -0.155981,0.434784c-0.142089,0.374846 -0.351626,0.896047 -0.608499,1.509872c-0.513745,1.22765 -1.216155,2.834415 -1.977872,4.505036c-0.948893,2.081128 -1.621632,3.623793 -2.040634,4.692042c-0.209496,0.534122 -0.356685,0.936249 -0.454432,1.310389c-0.048872,0.187075 -0.098277,0.341124 -0.097486,0.676123c0.000369,0.167504 -0.015037,0.40009 0.192192,0.791335c0.207245,0.391227 0.89705,0.847234 1.402444,0.848289c1.035951,0.002286 1.703983,-0.351509 2.551856,-0.760534c0.847891,-0.409009 1.696651,-0.912329 2.389966,-1.507576c0.682302,-0.585788 1.307226,-1.250168 2.327617,-2.866714c1.020386,-1.616532 2.577899,-4.316259 5.524927,-9.44739c3.591004,-6.252345 7.225972,-12.692365 9.961692,-17.6176c1.367862,-2.462612 2.510176,-4.545765 3.312626,-6.043759c0.401228,-0.749004 0.71651,-1.350276 0.938781,-1.792166c0.111135,-0.220945 0.198734,-0.400077 0.26965,-0.558552c0.035436,-0.07928 0.066969,-0.148574 0.102498,-0.246843c0.017773,-0.049098 0.03768,-0.103699 0.06099,-0.197505c0.023385,-0.093789 0.092683,-0.176689 0.035824,-0.603466a-1.448198,1.448198 0 0 1 -0.000761,-0.001997c-0.056042,-0.420373 -0.121816,-0.441683 -0.161664,-0.52371c-0.039352,-0.082227 -0.072731,-0.139782 -0.106828,-0.198321c-0.068302,-0.11706 -0.142351,-0.231495 -0.231692,-0.367438c-0.178582,-0.271925 -0.416189,-0.615032 -0.704838,-1.022629c-0.577294,-0.815185 -1.356779,-1.88069 -2.210001,-3.013598c-2.932614,-3.893904 -6.161517,-8.428495 -8.846839,-12.37128c-2.685312,-3.942788 -4.862944,-7.381854 -5.547685,-8.74518l-0.342877,-0.682511a-1.448198,1.448198 0 0 1 -1.957006,-0.744124l-0.000041,-0.000019zm-72.15934,30.405041l-3.163252,1.284084a-1.448198,1.448198 0 0 1 -0.952382,1.223178l-0.197,1.42896c-0.272073,1.965384 -0.136303,4.910212 0.241363,8.545047c0.377671,3.634821 1.022445,7.888707 1.870055,12.137688c0.552385,2.769073 1.26806,6.009018 1.875675,8.58333c0.303814,1.287142 0.579197,2.405124 0.799149,3.227479c0.109959,0.411178 0.204344,0.744894 0.290133,1.013152c0.043093,0.134048 0.081468,0.249121 0.137011,0.383422c0.027886,0.067152 0.055299,0.136063 0.123012,0.252479c0.067313,0.116568 -0.001949,0.340413 0.733467,0.669896c0.468596,0.20987 0.615794,0.143841 0.743292,0.138899c0.1275,-0.004908 0.207907,-0.017258 0.283524,-0.02984c0.151196,-0.025265 0.274739,-0.054745 0.416339,-0.09168c0.283162,-0.07397 0.61659,-0.17568 1.010655,-0.302564c0.788072,-0.253861 1.803961,-0.607721 2.884536,-1.001338c2.161187,-0.787135 4.529817,-1.70791 5.828218,-2.322284c0.887291,-0.419796 1.548828,-0.683415 2.181609,-1.046112c0.632795,-0.36269 1.309269,-0.970667 1.622592,-1.762399c0.626645,-1.583466 0.295008,-3.032656 0.142677,-6.394777c-0.329694,-7.276977 -0.418275,-18.413941 -0.194259,-23.366157c0.069257,-1.530796 0.097356,-2.49654 0.054839,-3.220147c-0.02126,-0.361809 -0.041071,-0.658901 -0.183602,-1.055993c-0.142265,-0.397204 -0.667165,-1.072004 -1.354773,-1.20382c-0.720705,-0.13813 -1.042365,-0.051967 -1.732595,-0.003059c-0.69024,0.048911 -1.533754,0.131738 -2.430099,0.236031c-1.792703,0.20858 -3.770194,0.493836 -5.107509,0.778559c-1.740451,0.370558 -3.819925,1.044197 -5.922885,1.898139l0.000209,-0.000171z"/>
   <path fill="#faa633" d="m321.097484,293.936279l-15.54773,-0.0942l-0.13569,-4.47246c-0.20895,-6.88714 -1.33896,-11.84475 -4.62333,-20.28375l-3.01453,-7.74565l-11.32146,-16.2394c0.3598,-0.3574 -4.23717,-5.24495 -10.62335,-11.29483c-6.1917,-5.86563 -11.17552,-10.74636 -11.07516,-10.84604c0.10035,-0.0997 4.2557,-2.67677 9.2341,-5.72685c4.9784,-3.05008 10.7471,-6.81403 12.81931,-8.36433c4.42999,-3.31423 5.14853,-3.05633 12.76336,4.581c12.21357,12.24966 24.06404,29.76505 29.71028,43.91277c3.0978,7.76213 6.53695,23.18328 7.05362,31.6285l0.30831,5.03935l-15.54773,-0.0942l0,0.00009z" id="path5047"/>
   <path fill="#9e78b0" d="m178.375134,293.440599l-15.35116,-0.0752l0.98619,-8.99772c1.92359,-17.55025 7.85357,-33.0984 19.22755,-50.41382c3.56999,-5.43485 7.89713,-10.35431 17.2109,-19.56675c13.94725,-13.79553 20.66572,-18.86083 43.52047,-32.81162c16.35049,-9.98052 25.22588,-16.58562 34.00694,-25.30807l6.04105,-6.00072c11.18565,-14.83855 0,0 11.18565,-14.83855l2.17653,-3.93147c1.1971,-2.16232 3.60312,-7.92286 5.34675,-12.80122c2.59609,-7.2634 3.16936,-11.06767 3.16544,-21.00599c-0.005,-12.82311 -2.18381,-22.17578 -7.5753,-32.51809l-2.80561,-5.38193l-10.98509,-15.0357l-9.64636,-9.09393c-5.3055,-5.00166 -9.56441,-9.17532 -9.46428,-9.27479c0.10016,-0.0995 4.25533,-2.67638 9.23373,-5.72647c4.97841,-3.05008 10.77123,-6.83174 12.87293,-8.40368c3.60029,-2.69279 3.99408,-2.73904 6.80882,-0.79972c4.2539,2.93091 17.60767,18.14424 23.24807,26.48543c17.20613,25.44496 23.03549,52.34671 17.22201,79.47747c-7.67946,35.83913 -33.30876,66.21567 -77.72458,92.12128c-22.88907,13.3501 -42.65229,31.27457 -51.97222,47.13677c-5.33156,9.07416 -9.9241,22.35041 -10.45137,30.21318c-0.22547,3.36276 -0.52606,6.2294 -0.66794,6.37033c-0.14188,0.14094 -7.16599,0.22238 -15.60912,0.18101l0,-0.00003z" id="path5045"/>
   <path fill="#1973ba" d="m307.033744,-98.551391l-0.42579,6.34766c-0.5441,8.11363 -5.10148,21.3292 -10.49023,30.42382c-5.49392,9.27211 -19.37308,24.33799 -29.90039,32.45508c-4.30687,3.32083 -13.41377,9.39073 -20.23633,13.48828c-6.82254,4.09755 -16.52838,10.34572 -21.56836,13.88477c-60.74927,42.65781 -77.0265,103.62073 -41.93555,157.0625c6.11761,9.31682 19.7172,25.10042 24.41602,28.33789c2.95129,2.03342 3.00112,2.02221 8.92773,-2.21484c3.27735,-2.34304 8.77399,-5.89547 12.21485,-7.89453c3.44086,-1.99907 6.61551,-3.91171 7.05469,-4.25c0.50576,-0.38949 -4.02865,-5.51295 -12.36329,-13.97071c-15.13407,-15.35769 -19.25222,-21.52244 -24.2246,-36.26172c-2.21508,-6.56601 -3.27821,-7.08446 -3.5625,-11.84179l0.375,-18.91407c0.32109,-6.06348 0.98195,-5.57351 3.33203,-12.38867c4.17566,-12.1093 9.686,-20.89893 20.27929,-32.35156c10.82771,-11.70605 20.16912,-19.07359 36.9961,-29.17969c40.06034,-24.05981 62.65861,-47.16537 74.42968,-76.0957c3.14971,-7.74121 6.69241,-23.13851 7.26563,-31.58008l0.3418,-5.03711l-15.46289,-0.01l-15.46289,-0.01l0,0.00047z" id="path5043"/>
   <path fill="#1973ba" d="m290.658564,-140.399051l8.59765,12.33204l3.01367,7.74414c3.28437,8.439 4.41605,13.39801 4.625,20.28515l0.13477,4.47266l15.54883,0.0937l15.54687,0.0937l-0.30859,-5.03906c-0.51667,-8.44522 -3.95494,-23.86678 -7.05274,-31.62891c-1.0708,-2.6831 -2.36845,-5.48706 -3.8457,-8.35352l-36.25976,0l0,0.0001z" id="path5047-7"/>
   <path fill="#8cc53d" d="m173.834524,-143.899051c-11.53579,30.2211 -8.04903,62.65907 11.6875,92.7168c6.11761,9.31682 19.71719,25.10237 24.41601,28.33984c2.95129,2.03342 2.99916,2.02026 8.92578,-2.21679c3.27734,-2.34304 8.77399,-5.89547 12.21485,-7.89453c3.44086,-1.99907 6.61551,-3.91171 7.05468,-4.25c0.50576,-0.38949 -4.02669,-5.51295 -12.36132,-13.97071c-15.13407,-15.35769 -19.25223,-21.52048 -24.22461,-36.25976c-2.21508,-6.56601 -3.28017,-7.08447 -3.56446,-11.8418l0.37696,-18.91601c0.32109,-6.06348 0.98195,-5.57352 3.33203,-12.38868c1.67034,-4.84395 3.56115,-9.15378 5.89844,-13.31836l-33.75586,0z" id="path5043-5"/>
  </g>
 </g>
</svg>