<?xml version="1.0" standalone="no"?>
<!DOCTYPE svg PUBLIC "-//W3C//DTD SVG 20010904//EN"
 "http://www.w3.org/TR/2001/REC-SVG-20010904/DTD/svg10.dtd">
<svg version="1.0" xmlns="http://www.w3.org/2000/svg"
 width="160.000000pt" height="160.000000pt" viewBox="0 0 160.000000 160.000000"
 preserveAspectRatio="xMidYMid meet">
<metadata>
Created by potrace 1.11, written by Peter Selinger 2001-2013
</metadata>
<g transform="translate(0.000000,160.000000) scale(0.100000,-0.100000)"
fill="#000000" stroke="none">
<path d="M230 1002 l0 -589 97 -68 c54 -38 100 -72 103 -75 3 -4 15 -12 28
-19 12 -7 20 -17 16 -23 -4 -7 -3 -8 4 -4 6 3 81 -43 167 -104 l157 -111 78
53 c42 29 144 100 225 158 82 58 152 104 157 103 4 -2 8 1 8 7 0 5 25 26 55
46 l55 37 0 588 0 589 -575 0 -575 0 0 -588z m294 471 c-9 -18 -14 -59 -14
-114 0 -76 3 -91 25 -123 l25 -37 -22 -32 c-18 -26 -24 -48 -27 -115 -4 -101
1 -122 39 -165 16 -19 26 -38 22 -42 -4 -5 -2 -5 5 -1 6 3 31 -7 55 -23 24
-16 64 -39 91 -52 26 -13 47 -25 47 -28 0 -4 -28 -21 -63 -40 -86 -47 -165
-109 -184 -144 -12 -23 -14 -54 -11 -132 l3 -101 -97 69 -98 68 0 520 0 519
109 0 110 0 -15 -27z m516 17 c0 -15 -89 -72 -102 -64 -7 4 -8 3 -4 -4 8 -14
-30 -36 -46 -26 -6 4 -9 3 -5 -2 3 -5 -41 -34 -98 -64 -116 -61 -116 -61 -192
5 l-36 31 51 38 c31 22 57 34 64 30 7 -4 10 -3 5 1 -4 5 14 21 40 37 46 27 53
28 186 28 80 0 137 -4 137 -10z m250 -506 c0 -480 -1 -518 -17 -531 -69 -54
-333 -235 -340 -233 -4 1 -32 14 -61 29 l-53 27 63 33 c88 47 140 84 176 126
32 35 32 37 32 140 0 98 -2 105 -27 135 -15 18 -22 35 -17 38 34 23 44 58 44
156 0 138 -8 149 -188 252 l-73 42 50 27 c27 15 53 27 57 25 4 -1 10 2 13 7 3
4 29 26 58 47 29 22 55 46 58 53 2 8 9 12 14 9 5 -3 9 0 8 7 0 6 1 38 1 70 l2
57 100 0 100 0 0 -516z m-462 60 c116 -61 224 -132 217 -144 -2 -4 -29 -24
-60 -45 l-55 -39 -86 43 c-46 23 -82 46 -79 51 3 5 0 8 -7 5 -16 -6 -151 69
-141 78 3 4 0 7 -9 7 -8 0 -23 9 -32 19 -17 18 -15 21 39 59 66 47 54 49 213
-34z m159 -424 c29 -23 53 -44 53 -49 0 -14 -98 -77 -235 -149 -128 -68 -130
-69 -158 -53 -53 30 -91 67 -82 80 13 22 127 91 139 84 6 -3 7 -2 3 2 -6 8
191 120 217 124 5 0 33 -17 63 -39z"/>
</g>
</svg>
